<svg width="1440" height="484" viewBox="0 0 1440 484" fill="none" xmlns="http://www.w3.org/2000/svg">
<rect width="1440" height="367" fill="#5B5A62"/>
<g clip-path="url(#clip0_328_361)">
<path d="M1283.04 300.566L1175.7 358.077L1268.67 280.01L1145.22 275.519L1266.35 255.357L1159.85 190.071L1276.69 233.216L1215.69 124.626L1296.93 219.518L1297.78 96.7178L1321.64 217.934L1384.1 113.831L1344.2 228.889L1451.54 171.374L1358.57 249.445L1482.03 253.929L1360.89 274.095L1467.39 339.38L1350.55 296.239L1411.55 404.825L1330.31 309.934L1329.47 432.73L1305.6 311.521L1243.14 415.62L1283.04 300.566Z" fill="url(#paint0_linear_328_361)" fill-opacity="0.3"/>
</g>
<g clip-path="url(#clip1_328_361)">
<path d="M63.2034 -18.0419L58.5231 -259.893L110.7 -23.1561L225.622 -233.169L154.708 -3.40663L358.432 -125.311L183.429 35.9119L421.373 34.7831L189.175 84.2633L397.583 204.22L170.401 128.696L293.425 337.589L132.139 157.298L136.823 399.158L84.6427 162.412L-30.2671 372.431L40.644 142.659L-163.08 264.563L11.913 103.344L-226.021 104.469L6.17623 54.989L-202.228 -64.9578L24.9415 10.56L-98.0795 -198.324L63.2034 -18.0419Z" fill="url(#paint1_linear_328_361)" fill-opacity="0.3"/>
</g>
<g clip-path="url(#clip2_328_361)">
<path d="M63.2034 -18.0419L58.5231 -259.893L110.7 -23.1561L225.622 -233.169L154.708 -3.40663L358.432 -125.311L183.429 35.9119L421.373 34.7831L189.175 84.2633L397.583 204.22L170.401 128.696L293.425 337.589L132.139 157.298L136.823 399.158L84.6427 162.412L-30.2671 372.431L40.644 142.659L-163.08 264.563L11.913 103.344L-226.021 104.469L6.17623 54.989L-202.228 -64.9578L24.9415 10.56L-98.0795 -198.324L63.2034 -18.0419Z" fill="url(#paint2_linear_328_361)" fill-opacity="0.3"/>
</g>
<path d="M449.455 194.275C446.888 194.275 444.78 193.817 443.13 192.9C441.517 191.983 440.233 190.645 439.28 188.885C438.363 187.125 437.703 184.962 437.3 182.395C436.933 179.828 436.75 176.913 436.75 173.65C436.75 170.313 436.952 167.362 437.355 164.795C437.795 162.228 438.547 160.083 439.61 158.36C440.673 156.6 442.14 155.28 444.01 154.4C445.917 153.483 448.355 153.025 451.325 153.025C453.012 153.025 454.625 153.098 456.165 153.245C457.705 153.355 459.19 153.538 460.62 153.795C462.05 154.052 463.443 154.345 464.8 154.675V159.9C464.03 159.79 462.985 159.68 461.665 159.57C460.382 159.46 458.952 159.368 457.375 159.295C455.798 159.185 454.167 159.13 452.48 159.13C450.06 159.13 448.208 159.607 446.925 160.56C445.642 161.477 444.762 162.998 444.285 165.125C443.808 167.252 443.57 170.112 443.57 173.705C443.57 176.528 443.698 178.875 443.955 180.745C444.212 182.578 444.633 184.045 445.22 185.145C445.843 186.208 446.668 186.96 447.695 187.4C448.758 187.803 450.042 188.005 451.545 188.005C453.158 188.005 454.717 187.858 456.22 187.565C457.76 187.235 459.043 186.887 460.07 186.52V177.17H451.875V171.89C452.608 171.78 453.488 171.688 454.515 171.615C455.578 171.542 456.678 171.487 457.815 171.45C458.952 171.377 460.07 171.34 461.17 171.34C462.27 171.34 463.26 171.358 464.14 171.395C465.057 171.395 465.882 171.432 466.615 171.505V194H461.5L460.565 191.195C459.428 191.855 457.87 192.533 455.89 193.23C453.91 193.927 451.765 194.275 449.455 194.275ZM474.157 194V153.41H480.922V194H474.157ZM499.168 194L485.968 153.41H493.008L503.458 186.685L513.908 153.41H520.948L507.748 194H499.168ZM533.943 194.275C533.063 194.275 532.073 194.183 530.973 194C529.91 193.853 528.883 193.505 527.893 192.955C526.903 192.368 526.096 191.507 525.473 190.37C524.85 189.233 524.538 187.675 524.538 185.695V162.265C524.538 160.542 524.795 159.112 525.308 157.975C525.821 156.802 526.5 155.885 527.343 155.225C528.223 154.565 529.176 154.107 530.203 153.85C531.266 153.557 532.311 153.41 533.338 153.41C535.905 153.41 538.215 153.447 540.268 153.52C542.321 153.593 544.191 153.667 545.878 153.74C547.601 153.813 549.196 153.905 550.663 154.015V159.68H535.318C534.071 159.68 533.081 159.992 532.348 160.615C531.651 161.238 531.303 162.21 531.303 163.53V170.735L548.188 171.12V176.455L531.303 176.84V183.825C531.303 184.925 531.486 185.768 531.853 186.355C532.256 186.942 532.751 187.345 533.338 187.565C533.961 187.785 534.603 187.895 535.263 187.895H550.663V193.56C549.05 193.707 547.29 193.835 545.383 193.945C543.476 194.018 541.533 194.073 539.553 194.11C537.61 194.183 535.74 194.238 533.943 194.275ZM581.544 194V181.295L569.114 153.41H576.154L585.064 174.365L593.974 153.41H600.849L588.364 181.295V194H581.544ZM620.395 194.33C617.681 194.33 615.298 194.073 613.245 193.56C611.228 193.01 609.523 192.038 608.13 190.645C606.773 189.215 605.746 187.143 605.05 184.43C604.39 181.717 604.06 178.178 604.06 173.815C604.06 169.415 604.408 165.858 605.105 163.145C605.801 160.395 606.828 158.305 608.185 156.875C609.578 155.408 611.283 154.4 613.3 153.85C615.353 153.3 617.718 153.025 620.395 153.025C623.145 153.025 625.546 153.3 627.6 153.85C629.653 154.4 631.358 155.408 632.715 156.875C634.071 158.305 635.08 160.395 635.74 163.145C636.436 165.858 636.785 169.415 636.785 173.815C636.785 178.178 636.436 181.717 635.74 184.43C635.08 187.143 634.053 189.215 632.66 190.645C631.303 192.038 629.598 193.01 627.545 193.56C625.528 194.073 623.145 194.33 620.395 194.33ZM620.395 188.225C622.191 188.225 623.695 188.042 624.905 187.675C626.151 187.272 627.141 186.575 627.875 185.585C628.608 184.558 629.14 183.11 629.47 181.24C629.8 179.333 629.965 176.858 629.965 173.815C629.965 170.588 629.781 168.022 629.415 166.115C629.085 164.172 628.553 162.705 627.82 161.715C627.086 160.688 626.115 160.01 624.905 159.68C623.695 159.313 622.191 159.13 620.395 159.13C618.708 159.13 617.26 159.313 616.05 159.68C614.84 160.01 613.85 160.688 613.08 161.715C612.346 162.705 611.796 164.172 611.43 166.115C611.063 168.022 610.88 170.588 610.88 173.815C610.88 176.858 611.026 179.333 611.32 181.24C611.65 183.11 612.181 184.558 612.915 185.585C613.648 186.575 614.62 187.272 615.83 187.675C617.076 188.042 618.598 188.225 620.395 188.225ZM658.307 194.275C656.07 194.275 653.998 194.092 652.092 193.725C650.185 193.322 648.535 192.643 647.142 191.69C645.748 190.7 644.667 189.362 643.897 187.675C643.163 185.952 642.797 183.752 642.797 181.075V153.41H649.562V181.075C649.562 182.835 649.91 184.247 650.607 185.31C651.303 186.337 652.293 187.07 653.577 187.51C654.897 187.95 656.473 188.17 658.307 188.17C660.14 188.17 661.698 187.95 662.982 187.51C664.302 187.07 665.31 186.337 666.007 185.31C666.703 184.247 667.052 182.835 667.052 181.075V153.41H673.817V181.075C673.817 183.752 673.432 185.952 672.662 187.675C671.928 189.362 670.865 190.7 669.472 191.69C668.078 192.643 666.428 193.322 664.522 193.725C662.652 194.092 660.58 194.275 658.307 194.275ZM680.837 194V153.41H697.337C698.84 153.41 700.252 153.593 701.572 153.96C702.929 154.29 704.12 154.913 705.147 155.83C706.21 156.747 707.035 158.03 707.622 159.68C708.245 161.293 708.557 163.402 708.557 166.005C708.557 168.022 708.355 169.708 707.952 171.065C707.549 172.385 707.017 173.467 706.357 174.31C705.697 175.153 704.945 175.813 704.102 176.29C703.295 176.73 702.489 177.097 701.682 177.39L709.492 194H702.617L695.577 178.38C695.064 178.38 694.459 178.38 693.762 178.38C693.102 178.38 692.405 178.38 691.672 178.38C690.939 178.343 690.224 178.325 689.527 178.325C688.83 178.288 688.189 178.27 687.602 178.27V194H680.837ZM687.602 172.935H696.182C696.989 172.935 697.722 172.843 698.382 172.66C699.042 172.44 699.629 172.073 700.142 171.56C700.655 171.047 701.04 170.35 701.297 169.47C701.59 168.59 701.737 167.453 701.737 166.06C701.737 164.703 701.59 163.603 701.297 162.76C701.04 161.88 700.655 161.22 700.142 160.78C699.629 160.303 699.024 159.973 698.327 159.79C697.667 159.607 696.952 159.515 696.182 159.515H687.602V172.935ZM729.338 194V162.265C729.338 160.542 729.595 159.112 730.108 157.975C730.621 156.802 731.3 155.885 732.143 155.225C733.023 154.565 733.976 154.107 735.003 153.85C736.066 153.557 737.111 153.41 738.138 153.41C739.568 153.41 741.255 153.428 743.198 153.465C745.141 153.465 747.176 153.52 749.303 153.63C751.43 153.703 753.483 153.832 755.463 154.015V159.68H739.953C738.743 159.68 737.79 160.028 737.093 160.725C736.433 161.385 736.103 162.302 736.103 163.475V171.67L752.988 172.055V177.39L736.103 177.775V194H729.338ZM769.949 194.275C769.069 194.275 768.079 194.183 766.979 194C765.916 193.853 764.889 193.505 763.899 192.955C762.909 192.368 762.102 191.507 761.479 190.37C760.856 189.233 760.544 187.675 760.544 185.695V162.265C760.544 160.542 760.801 159.112 761.314 157.975C761.827 156.802 762.506 155.885 763.349 155.225C764.229 154.565 765.182 154.107 766.209 153.85C767.272 153.557 768.317 153.41 769.344 153.41C771.911 153.41 774.221 153.447 776.274 153.52C778.327 153.593 780.197 153.667 781.884 153.74C783.607 153.813 785.202 153.905 786.669 154.015V159.68H771.324C770.077 159.68 769.087 159.992 768.354 160.615C767.657 161.238 767.309 162.21 767.309 163.53V170.735L784.194 171.12V176.455L767.309 176.84V183.825C767.309 184.925 767.492 185.768 767.859 186.355C768.262 186.942 768.757 187.345 769.344 187.565C769.967 187.785 770.609 187.895 771.269 187.895H786.669V193.56C785.056 193.707 783.296 193.835 781.389 193.945C779.482 194.018 777.539 194.073 775.559 194.11C773.616 194.183 771.746 194.238 769.949 194.275ZM802.068 194.275C801.188 194.275 800.198 194.183 799.098 194C798.035 193.853 797.008 193.505 796.018 192.955C795.028 192.368 794.221 191.507 793.598 190.37C792.975 189.233 792.663 187.675 792.663 185.695V162.265C792.663 160.542 792.92 159.112 793.433 157.975C793.946 156.802 794.625 155.885 795.468 155.225C796.348 154.565 797.301 154.107 798.328 153.85C799.391 153.557 800.436 153.41 801.463 153.41C804.03 153.41 806.34 153.447 808.393 153.52C810.446 153.593 812.316 153.667 814.003 153.74C815.726 153.813 817.321 153.905 818.788 154.015V159.68H803.443C802.196 159.68 801.206 159.992 800.473 160.615C799.776 161.238 799.428 162.21 799.428 163.53V170.735L816.313 171.12V176.455L799.428 176.84V183.825C799.428 184.925 799.611 185.768 799.978 186.355C800.381 186.942 800.876 187.345 801.463 187.565C802.086 187.785 802.728 187.895 803.388 187.895H818.788V193.56C817.175 193.707 815.415 193.835 813.508 193.945C811.601 194.018 809.658 194.073 807.678 194.11C805.735 194.183 803.865 194.238 802.068 194.275ZM825.319 194V153.41H842.094C844.734 153.41 846.934 153.887 848.694 154.84C850.491 155.757 851.921 157.113 852.984 158.91C854.048 160.67 854.799 162.797 855.239 165.29C855.716 167.783 855.954 170.588 855.954 173.705C855.954 178.178 855.441 181.918 854.414 184.925C853.388 187.895 851.848 190.15 849.794 191.69C847.741 193.23 845.174 194 842.094 194H825.319ZM832.084 187.895H841.434C843.304 187.895 844.789 187.345 845.889 186.245C847.026 185.145 847.851 183.532 848.364 181.405C848.914 179.278 849.189 176.712 849.189 173.705C849.189 170.918 849.024 168.608 848.694 166.775C848.364 164.942 847.888 163.493 847.264 162.43C846.641 161.367 845.834 160.615 844.844 160.175C843.891 159.735 842.754 159.515 841.434 159.515H832.084V187.895ZM862.487 194V153.41H877.997C881.811 153.41 884.634 154.308 886.467 156.105C888.301 157.902 889.217 160.523 889.217 163.97C889.217 165.583 888.961 167.013 888.447 168.26C887.971 169.47 887.311 170.478 886.467 171.285C885.624 172.055 884.634 172.587 883.497 172.88C884.341 173.1 885.166 173.448 885.972 173.925C886.816 174.365 887.586 174.988 888.282 175.795C888.979 176.602 889.529 177.592 889.932 178.765C890.336 179.902 890.537 181.24 890.537 182.78C890.537 185.567 890.061 187.785 889.107 189.435C888.191 191.048 886.834 192.222 885.037 192.955C883.277 193.652 881.151 194 878.657 194H862.487ZM869.252 187.895H878.437C879.574 187.895 880.564 187.693 881.407 187.29C882.251 186.887 882.892 186.245 883.332 185.365C883.809 184.448 884.047 183.202 884.047 181.625C884.047 180.378 883.809 179.333 883.332 178.49C882.856 177.647 882.196 177.005 881.352 176.565C880.509 176.088 879.537 175.85 878.437 175.85H869.252V187.895ZM869.252 170.57H878.107C879.464 170.57 880.564 170.075 881.407 169.085C882.251 168.058 882.691 166.72 882.727 165.07C882.764 162.98 882.306 161.532 881.352 160.725C880.436 159.918 879.299 159.515 877.942 159.515H869.252V170.57ZM894.01 194L907.21 153.41H915.79L928.99 194H921.895L918.76 184.375H904.075L900.995 194H894.01ZM905.67 178.27H917.11L911.39 159.24L905.67 178.27ZM946.97 194.33C944.586 194.33 942.478 194.055 940.645 193.505C938.848 192.955 937.326 191.947 936.08 190.48C934.87 189.013 933.953 186.923 933.33 184.21C932.706 181.497 932.395 177.94 932.395 173.54C932.395 169.397 932.706 165.987 933.33 163.31C933.99 160.633 934.943 158.543 936.19 157.04C937.473 155.537 939.031 154.492 940.865 153.905C942.698 153.318 944.788 153.025 947.135 153.025C948.748 153.025 950.306 153.117 951.81 153.3C953.35 153.483 954.761 153.703 956.045 153.96C957.365 154.217 958.501 154.492 959.455 154.785V160.01C958.831 159.863 957.951 159.735 956.815 159.625C955.678 159.478 954.395 159.368 952.965 159.295C951.535 159.185 950.05 159.13 948.51 159.13C946.823 159.13 945.375 159.332 944.165 159.735C942.991 160.102 942.038 160.798 941.305 161.825C940.571 162.852 940.04 164.318 939.71 166.225C939.38 168.132 939.215 170.607 939.215 173.65C939.215 176.657 939.361 179.113 939.655 181.02C939.985 182.927 940.48 184.412 941.14 185.475C941.836 186.502 942.771 187.217 943.945 187.62C945.155 188.023 946.658 188.225 948.455 188.225C951.205 188.225 953.46 188.17 955.22 188.06C956.98 187.913 958.391 187.767 959.455 187.62V192.845C958.428 193.138 957.255 193.395 955.935 193.615C954.651 193.835 953.258 194 951.755 194.11C950.288 194.257 948.693 194.33 946.97 194.33ZM965.559 194V153.41H972.324V170.735H978.319L987.669 153.41H994.929L983.764 173.76L995.204 194H987.944L978.319 176.895H972.324V194H965.559ZM1015.64 182.89L1014.82 153.465H1021.64L1020.65 182.89H1015.64ZM1016.19 194.055C1015.49 194.055 1015.15 193.725 1015.15 193.065V187.84C1015.15 187.143 1015.49 186.795 1016.19 186.795H1020.04C1020.77 186.795 1021.14 187.143 1021.14 187.84V193.065C1021.14 193.432 1021.03 193.688 1020.81 193.835C1020.63 193.982 1020.37 194.055 1020.04 194.055H1016.19ZM1030.46 182.89L1029.64 153.465H1036.46L1035.47 182.89H1030.46ZM1031.01 194.055C1030.32 194.055 1029.97 193.725 1029.97 193.065V187.84C1029.97 187.143 1030.32 186.795 1031.01 186.795H1034.86C1035.6 186.795 1035.96 187.143 1035.96 187.84V193.065C1035.96 193.432 1035.85 193.688 1035.63 193.835C1035.45 193.982 1035.19 194.055 1034.86 194.055H1031.01Z" fill="#EFE9F1"/>
<path d="M236.62 257L230.285 231.17H234.765L239.42 250.7L244.81 231.17H248.87L254.225 250.7L258.88 231.17H263.36L257.025 257H252.545L246.84 237.435L241.1 257H236.62ZM272.641 257.175C270.611 257.175 268.99 256.895 267.776 256.335C266.586 255.775 265.723 254.807 265.186 253.43C264.65 252.03 264.381 250.093 264.381 247.62C264.381 245.1 264.638 243.152 265.151 241.775C265.665 240.375 266.516 239.395 267.706 238.835C268.896 238.275 270.506 237.995 272.536 237.995C274.333 237.995 275.768 238.182 276.841 238.555C277.938 238.905 278.731 239.547 279.221 240.48C279.735 241.39 279.991 242.685 279.991 244.365C279.991 245.555 279.758 246.512 279.291 247.235C278.825 247.935 278.148 248.437 277.261 248.74C276.398 249.043 275.371 249.195 274.181 249.195H268.686C268.733 250.362 268.885 251.295 269.141 251.995C269.421 252.672 269.911 253.162 270.611 253.465C271.335 253.768 272.385 253.92 273.761 253.92H279.431V256.475C278.475 256.662 277.46 256.825 276.386 256.965C275.336 257.105 274.088 257.175 272.641 257.175ZM268.651 246.57H273.761C274.578 246.57 275.173 246.418 275.546 246.115C275.943 245.788 276.141 245.205 276.141 244.365C276.141 243.548 276.025 242.907 275.791 242.44C275.558 241.973 275.173 241.647 274.636 241.46C274.1 241.25 273.4 241.145 272.536 241.145C271.556 241.145 270.786 241.297 270.226 241.6C269.666 241.903 269.258 242.452 269.001 243.245C268.768 244.015 268.651 245.123 268.651 246.57ZM291.604 257L300.004 231.17H305.464L313.864 257H309.349L307.354 250.875H298.009L296.049 257H291.604ZM299.024 246.99H306.304L302.664 234.88L299.024 246.99ZM316.827 257V238.24H320.187L321.167 241.25C321.914 240.34 322.742 239.57 323.652 238.94C324.562 238.31 325.647 237.995 326.907 237.995C327.164 237.995 327.432 238.018 327.712 238.065C327.992 238.088 328.249 238.135 328.482 238.205V242.615C328.155 242.568 327.805 242.533 327.432 242.51C327.059 242.487 326.697 242.475 326.347 242.475C325.624 242.475 324.959 242.557 324.352 242.72C323.769 242.883 323.22 243.14 322.707 243.49C322.194 243.817 321.68 244.237 321.167 244.75V257H316.827ZM339.155 257.175C337.125 257.175 335.503 256.895 334.29 256.335C333.1 255.775 332.237 254.807 331.7 253.43C331.163 252.03 330.895 250.093 330.895 247.62C330.895 245.1 331.152 243.152 331.665 241.775C332.178 240.375 333.03 239.395 334.22 238.835C335.41 238.275 337.02 237.995 339.05 237.995C340.847 237.995 342.282 238.182 343.355 238.555C344.452 238.905 345.245 239.547 345.735 240.48C346.248 241.39 346.505 242.685 346.505 244.365C346.505 245.555 346.272 246.512 345.805 247.235C345.338 247.935 344.662 248.437 343.775 248.74C342.912 249.043 341.885 249.195 340.695 249.195H335.2C335.247 250.362 335.398 251.295 335.655 251.995C335.935 252.672 336.425 253.162 337.125 253.465C337.848 253.768 338.898 253.92 340.275 253.92H345.945V256.475C344.988 256.662 343.973 256.825 342.9 256.965C341.85 257.105 340.602 257.175 339.155 257.175ZM335.165 246.57H340.275C341.092 246.57 341.687 246.418 342.06 246.115C342.457 245.788 342.655 245.205 342.655 244.365C342.655 243.548 342.538 242.907 342.305 242.44C342.072 241.973 341.687 241.647 341.15 241.46C340.613 241.25 339.913 241.145 339.05 241.145C338.07 241.145 337.3 241.297 336.74 241.6C336.18 241.903 335.772 242.452 335.515 243.245C335.282 244.015 335.165 245.123 335.165 246.57ZM358.118 257L366.518 231.17H371.978L380.378 257H375.863L373.868 250.875H364.523L362.563 257H358.118ZM365.538 246.99H372.818L369.178 234.88L365.538 246.99ZM388.564 257.07C387.327 257.07 386.289 256.86 385.449 256.44C384.632 256.02 384.014 255.367 383.594 254.48C383.197 253.593 382.999 252.415 382.999 250.945V230.295H387.339V250.35C387.339 251.19 387.421 251.843 387.584 252.31C387.771 252.777 388.027 253.115 388.354 253.325C388.681 253.512 389.077 253.64 389.544 253.71L391.119 253.92V257.07H388.564ZM397.232 257L392.017 238.24H396.462L399.997 252.975L404.057 238.24H407.697L411.757 252.975L415.082 238.24H419.527L414.382 257H409.587L405.807 244.295L401.922 257H397.232ZM425.473 257.21C424.073 257.21 422.929 256.79 422.043 255.95C421.156 255.11 420.713 253.955 420.713 252.485V250.91C420.713 249.463 421.203 248.285 422.183 247.375C423.186 246.465 424.714 246.01 426.768 246.01H432.123V244.365C432.123 243.712 432.006 243.163 431.773 242.72C431.539 242.277 431.119 241.95 430.513 241.74C429.906 241.507 428.984 241.39 427.748 241.39H422.078V238.87C422.941 238.637 423.956 238.438 425.123 238.275C426.289 238.088 427.678 237.995 429.288 237.995C430.828 237.972 432.134 238.158 433.208 238.555C434.281 238.928 435.086 239.558 435.623 240.445C436.183 241.332 436.463 242.545 436.463 244.085V257H433.068L432.333 254.97C432.169 255.11 431.878 255.297 431.458 255.53C431.038 255.763 430.513 256.02 429.883 256.3C429.253 256.557 428.553 256.778 427.783 256.965C427.036 257.128 426.266 257.21 425.473 257.21ZM427.573 254.165C427.876 254.165 428.214 254.13 428.588 254.06C428.984 253.967 429.381 253.873 429.778 253.78C430.174 253.663 430.536 253.558 430.863 253.465C431.213 253.348 431.493 253.243 431.703 253.15C431.936 253.057 432.076 252.998 432.123 252.975V248.075L428.063 248.285C426.989 248.378 426.208 248.658 425.718 249.125C425.251 249.592 425.018 250.21 425.018 250.98V251.75C425.018 252.333 425.134 252.812 425.368 253.185C425.624 253.535 425.939 253.78 426.313 253.92C426.709 254.06 427.129 254.142 427.573 254.165ZM446.363 265.295L448.533 257C447.623 257 446.794 256.825 446.048 256.475C445.324 256.125 444.706 255.6 444.193 254.9C443.679 254.2 443.259 253.302 442.933 252.205L439.083 238.24H443.563L446.958 251.33C447.121 251.867 447.319 252.275 447.553 252.555C447.786 252.835 448.019 253.045 448.253 253.185C448.486 253.302 448.696 253.372 448.883 253.395C449.093 253.418 449.233 253.43 449.303 253.43L453.188 238.24H457.598L451.578 261.83L449.898 265.295H446.363ZM467.033 257.21C466.497 257.21 465.878 257.187 465.178 257.14C464.502 257.117 463.813 257.07 463.113 257C462.437 256.953 461.807 256.883 461.223 256.79C460.64 256.697 460.162 256.592 459.788 256.475V253.92H467.873C468.457 253.92 468.947 253.873 469.343 253.78C469.763 253.687 470.078 253.5 470.288 253.22C470.498 252.94 470.603 252.52 470.603 251.96V251.295C470.603 250.712 470.405 250.257 470.008 249.93C469.635 249.58 468.97 249.405 468.013 249.405H465.178C464.082 249.405 463.102 249.253 462.238 248.95C461.398 248.647 460.733 248.133 460.243 247.41C459.753 246.687 459.508 245.707 459.508 244.47V243.42C459.508 242.23 459.73 241.25 460.173 240.48C460.64 239.687 461.398 239.092 462.448 238.695C463.522 238.275 464.945 238.065 466.718 238.065C467.465 238.065 468.27 238.1 469.133 238.17C469.997 238.24 470.825 238.333 471.618 238.45C472.412 238.543 473.042 238.66 473.508 238.8V241.355H465.878C465.015 241.355 464.35 241.507 463.883 241.81C463.44 242.09 463.218 242.627 463.218 243.42V244.085C463.218 244.598 463.323 244.983 463.533 245.24C463.743 245.497 464.058 245.672 464.478 245.765C464.898 245.858 465.4 245.905 465.983 245.905H468.888C470.732 245.905 472.097 246.325 472.983 247.165C473.87 248.005 474.313 249.195 474.313 250.735V252.275C474.313 253.535 474.022 254.527 473.438 255.25C472.855 255.973 472.015 256.487 470.918 256.79C469.845 257.07 468.55 257.21 467.033 257.21ZM493.061 257C491.848 257 490.798 256.813 489.911 256.44C489.048 256.067 488.394 255.46 487.951 254.62C487.508 253.757 487.286 252.625 487.286 251.225V231.17H491.591V250.525C491.591 251.178 491.708 251.703 491.941 252.1C492.174 252.473 492.478 252.73 492.851 252.87C493.248 253.01 493.679 253.08 494.146 253.08H502.721V257H493.061ZM513.612 257.175C512.142 257.175 510.871 257.023 509.797 256.72C508.724 256.417 507.849 255.903 507.172 255.18C506.496 254.457 505.994 253.477 505.667 252.24C505.341 251.003 505.177 249.452 505.177 247.585C505.177 245.648 505.341 244.062 505.667 242.825C505.994 241.565 506.496 240.585 507.172 239.885C507.872 239.162 508.759 238.672 509.832 238.415C510.906 238.135 512.166 237.995 513.612 237.995C515.106 237.995 516.389 238.147 517.462 238.45C518.536 238.73 519.411 239.22 520.087 239.92C520.764 240.62 521.266 241.6 521.592 242.86C521.919 244.097 522.082 245.672 522.082 247.585C522.082 249.475 521.919 251.05 521.592 252.31C521.289 253.547 520.799 254.527 520.122 255.25C519.446 255.95 518.571 256.452 517.497 256.755C516.424 257.035 515.129 257.175 513.612 257.175ZM513.612 253.71C514.336 253.71 514.954 253.652 515.467 253.535C515.981 253.395 516.401 253.127 516.727 252.73C517.077 252.31 517.334 251.692 517.497 250.875C517.661 250.035 517.742 248.927 517.742 247.55C517.742 246.197 517.661 245.112 517.497 244.295C517.334 243.478 517.077 242.872 516.727 242.475C516.401 242.055 515.981 241.787 515.467 241.67C514.954 241.53 514.336 241.46 513.612 241.46C512.912 241.46 512.306 241.53 511.792 241.67C511.279 241.787 510.859 242.055 510.532 242.475C510.206 242.872 509.949 243.478 509.762 244.295C509.599 245.112 509.517 246.197 509.517 247.55C509.517 248.927 509.599 250.035 509.762 250.875C509.949 251.692 510.206 252.31 510.532 252.73C510.859 253.127 511.279 253.395 511.792 253.535C512.306 253.652 512.912 253.71 513.612 253.71ZM533.778 257.175C532.308 257.175 531.037 257.023 529.963 256.72C528.89 256.417 528.015 255.903 527.338 255.18C526.662 254.457 526.16 253.477 525.833 252.24C525.507 251.003 525.343 249.452 525.343 247.585C525.343 245.648 525.507 244.062 525.833 242.825C526.16 241.565 526.662 240.585 527.338 239.885C528.038 239.162 528.925 238.672 529.998 238.415C531.072 238.135 532.332 237.995 533.778 237.995C535.272 237.995 536.555 238.147 537.628 238.45C538.702 238.73 539.577 239.22 540.253 239.92C540.93 240.62 541.432 241.6 541.758 242.86C542.085 244.097 542.248 245.672 542.248 247.585C542.248 249.475 542.085 251.05 541.758 252.31C541.455 253.547 540.965 254.527 540.288 255.25C539.612 255.95 538.737 256.452 537.663 256.755C536.59 257.035 535.295 257.175 533.778 257.175ZM533.778 253.71C534.502 253.71 535.12 253.652 535.633 253.535C536.147 253.395 536.567 253.127 536.893 252.73C537.243 252.31 537.5 251.692 537.663 250.875C537.827 250.035 537.908 248.927 537.908 247.55C537.908 246.197 537.827 245.112 537.663 244.295C537.5 243.478 537.243 242.872 536.893 242.475C536.567 242.055 536.147 241.787 535.633 241.67C535.12 241.53 534.502 241.46 533.778 241.46C533.078 241.46 532.472 241.53 531.958 241.67C531.445 241.787 531.025 242.055 530.698 242.475C530.372 242.872 530.115 243.478 529.928 244.295C529.765 245.112 529.683 246.197 529.683 247.55C529.683 248.927 529.765 250.035 529.928 250.875C530.115 251.692 530.372 252.31 530.698 252.73C531.025 253.127 531.445 253.395 531.958 253.535C532.472 253.652 533.078 253.71 533.778 253.71ZM546.104 257V230.295H550.444V245.1H552.824L557.514 238.24H561.959L556.009 247.06L562.449 257H558.004L552.754 248.985H550.444V257H546.104ZM565.463 235.265C565.02 235.265 564.798 235.055 564.798 234.635V231.45C564.798 230.983 565.02 230.75 565.463 230.75H568.753C568.963 230.75 569.115 230.82 569.208 230.96C569.325 231.1 569.383 231.263 569.383 231.45V234.635C569.383 235.055 569.173 235.265 568.753 235.265H565.463ZM564.903 257V238.24H569.243V257H564.903ZM573.687 257V238.24H577.222L578.027 240.2C578.797 239.617 579.731 239.092 580.827 238.625C581.947 238.158 583.102 237.925 584.292 237.925C585.762 237.925 586.917 238.228 587.757 238.835C588.597 239.418 589.192 240.212 589.542 241.215C589.916 242.218 590.102 243.315 590.102 244.505V257H585.762V245.03C585.762 244.353 585.634 243.782 585.377 243.315C585.121 242.848 584.759 242.487 584.292 242.23C583.849 241.973 583.301 241.845 582.647 241.845C582.041 241.845 581.469 241.903 580.932 242.02C580.419 242.137 579.929 242.312 579.462 242.545C578.996 242.778 578.517 243.058 578.027 243.385V257H573.687ZM599.229 265.645C598.039 265.645 596.978 265.47 596.044 265.12C595.111 264.793 594.376 264.28 593.839 263.58C593.326 262.903 593.069 262.075 593.069 261.095V260.43C593.069 259.403 593.361 258.528 593.944 257.805C594.528 257.105 595.274 256.568 596.184 256.195C597.094 255.822 598.039 255.635 599.019 255.635L600.279 257.07C599.696 257.07 599.171 257.163 598.704 257.35C598.238 257.537 597.864 257.817 597.584 258.19C597.304 258.563 597.164 259.03 597.164 259.59V260.15C597.164 260.99 597.444 261.597 598.004 261.97C598.564 262.367 599.358 262.565 600.384 262.565H604.199C605.273 262.565 606.113 262.355 606.719 261.935C607.349 261.538 607.664 260.92 607.664 260.08V259.485C607.664 258.972 607.559 258.54 607.349 258.19C607.139 257.84 606.801 257.56 606.334 257.35C605.868 257.163 605.238 257.07 604.444 257.07H599.754C597.888 257.07 596.476 256.708 595.519 255.985C594.586 255.262 594.119 254.352 594.119 253.255C594.119 252.322 594.388 251.552 594.924 250.945C595.484 250.338 596.254 249.93 597.234 249.72C596.441 249.347 595.811 248.868 595.344 248.285C594.901 247.702 594.586 247.072 594.399 246.395C594.213 245.718 594.119 245.03 594.119 244.33C594.119 242.907 594.411 241.752 594.994 240.865C595.578 239.955 596.429 239.29 597.549 238.87C598.669 238.427 600.058 238.205 601.714 238.205H611.829V240.62L608.504 241.075C608.738 241.308 608.983 241.588 609.239 241.915C609.519 242.242 609.753 242.673 609.939 243.21C610.126 243.747 610.219 244.447 610.219 245.31C610.219 246.36 609.998 247.317 609.554 248.18C609.134 249.043 608.434 249.732 607.454 250.245C606.474 250.758 605.156 251.015 603.499 251.015H600.314C599.568 251.015 598.961 251.132 598.494 251.365C598.028 251.598 597.794 251.995 597.794 252.555C597.794 253.022 597.981 253.348 598.354 253.535C598.728 253.722 599.124 253.815 599.544 253.815H605.109C606.533 253.815 607.734 254.002 608.714 254.375C609.718 254.748 610.476 255.332 610.989 256.125C611.503 256.918 611.759 257.968 611.759 259.275V259.87C611.759 261.667 611.176 263.078 610.009 264.105C608.866 265.132 607.104 265.645 604.724 265.645H599.229ZM601.014 247.76H603.044C603.908 247.76 604.573 247.632 605.039 247.375C605.529 247.095 605.856 246.733 606.019 246.29C606.206 245.823 606.299 245.31 606.299 244.75C606.299 243.957 606.171 243.327 605.914 242.86C605.681 242.37 605.331 242.02 604.864 241.81C604.421 241.6 603.873 241.495 603.219 241.495H601.259C600.209 241.495 599.404 241.728 598.844 242.195C598.308 242.662 598.039 243.455 598.039 244.575C598.039 245.695 598.296 246.512 598.809 247.025C599.323 247.515 600.058 247.76 601.014 247.76ZM624.107 257V236.805C624.107 235.708 624.271 234.798 624.597 234.075C624.924 233.328 625.356 232.745 625.892 232.325C626.452 231.905 627.059 231.613 627.712 231.45C628.389 231.263 629.054 231.17 629.707 231.17C630.617 231.17 631.691 231.182 632.927 231.205C634.164 231.205 635.459 231.24 636.812 231.31C638.166 231.357 639.472 231.438 640.732 231.555V235.16H630.862C630.092 235.16 629.486 235.382 629.042 235.825C628.622 236.245 628.412 236.828 628.412 237.575V242.79L639.157 243.035V246.43L628.412 246.675V257H624.107ZM651.049 257.175C649.579 257.175 648.307 257.023 647.234 256.72C646.161 256.417 645.286 255.903 644.609 255.18C643.932 254.457 643.431 253.477 643.104 252.24C642.777 251.003 642.614 249.452 642.614 247.585C642.614 245.648 642.777 244.062 643.104 242.825C643.431 241.565 643.932 240.585 644.609 239.885C645.309 239.162 646.196 238.672 647.269 238.415C648.342 238.135 649.602 237.995 651.049 237.995C652.542 237.995 653.826 238.147 654.899 238.45C655.972 238.73 656.847 239.22 657.524 239.92C658.201 240.62 658.702 241.6 659.029 242.86C659.356 244.097 659.519 245.672 659.519 247.585C659.519 249.475 659.356 251.05 659.029 252.31C658.726 253.547 658.236 254.527 657.559 255.25C656.882 255.95 656.007 256.452 654.934 256.755C653.861 257.035 652.566 257.175 651.049 257.175ZM651.049 253.71C651.772 253.71 652.391 253.652 652.904 253.535C653.417 253.395 653.837 253.127 654.164 252.73C654.514 252.31 654.771 251.692 654.934 250.875C655.097 250.035 655.179 248.927 655.179 247.55C655.179 246.197 655.097 245.112 654.934 244.295C654.771 243.478 654.514 242.872 654.164 242.475C653.837 242.055 653.417 241.787 652.904 241.67C652.391 241.53 651.772 241.46 651.049 241.46C650.349 241.46 649.742 241.53 649.229 241.67C648.716 241.787 648.296 242.055 647.969 242.475C647.642 242.872 647.386 243.478 647.199 244.295C647.036 245.112 646.954 246.197 646.954 247.55C646.954 248.927 647.036 250.035 647.199 250.875C647.386 251.692 647.642 252.31 647.969 252.73C648.296 253.127 648.716 253.395 649.229 253.535C649.742 253.652 650.349 253.71 651.049 253.71ZM663.375 257V238.24H666.735L667.715 241.25C668.462 240.34 669.29 239.57 670.2 238.94C671.11 238.31 672.195 237.995 673.455 237.995C673.712 237.995 673.98 238.018 674.26 238.065C674.54 238.088 674.797 238.135 675.03 238.205V242.615C674.703 242.568 674.353 242.533 673.98 242.51C673.607 242.487 673.245 242.475 672.895 242.475C672.172 242.475 671.507 242.557 670.9 242.72C670.317 242.883 669.768 243.14 669.255 243.49C668.742 243.817 668.228 244.237 667.715 244.75V257H663.375ZM681.573 257L676.358 238.24H680.803L684.338 252.975L688.398 238.24H692.038L696.098 252.975L699.423 238.24H703.868L698.723 257H693.928L690.148 244.295L686.263 257H681.573ZM709.814 257.21C708.414 257.21 707.27 256.79 706.384 255.95C705.497 255.11 705.054 253.955 705.054 252.485V250.91C705.054 249.463 705.544 248.285 706.524 247.375C707.527 246.465 709.055 246.01 711.109 246.01H716.464V244.365C716.464 243.712 716.347 243.163 716.114 242.72C715.88 242.277 715.46 241.95 714.854 241.74C714.247 241.507 713.325 241.39 712.089 241.39H706.419V238.87C707.282 238.637 708.297 238.438 709.464 238.275C710.63 238.088 712.019 237.995 713.629 237.995C715.169 237.972 716.475 238.158 717.549 238.555C718.622 238.928 719.427 239.558 719.964 240.445C720.524 241.332 720.804 242.545 720.804 244.085V257H717.409L716.674 254.97C716.51 255.11 716.219 255.297 715.799 255.53C715.379 255.763 714.854 256.02 714.224 256.3C713.594 256.557 712.894 256.778 712.124 256.965C711.377 257.128 710.607 257.21 709.814 257.21ZM711.914 254.165C712.217 254.165 712.555 254.13 712.929 254.06C713.325 253.967 713.722 253.873 714.119 253.78C714.515 253.663 714.877 253.558 715.204 253.465C715.554 253.348 715.834 253.243 716.044 253.15C716.277 253.057 716.417 252.998 716.464 252.975V248.075L712.404 248.285C711.33 248.378 710.549 248.658 710.059 249.125C709.592 249.592 709.359 250.21 709.359 250.98V251.75C709.359 252.333 709.475 252.812 709.709 253.185C709.965 253.535 710.28 253.78 710.654 253.92C711.05 254.06 711.47 254.142 711.914 254.165ZM725.103 257V238.24H728.463L729.443 241.25C730.19 240.34 731.018 239.57 731.928 238.94C732.838 238.31 733.923 237.995 735.183 237.995C735.44 237.995 735.708 238.018 735.988 238.065C736.268 238.088 736.525 238.135 736.758 238.205V242.615C736.432 242.568 736.082 242.533 735.708 242.51C735.335 242.487 734.973 242.475 734.623 242.475C733.9 242.475 733.235 242.557 732.628 242.72C732.045 242.883 731.497 243.14 730.983 243.49C730.47 243.817 729.957 244.237 729.443 244.75V257H725.103ZM745.892 257.21C744.422 257.21 743.185 256.895 742.182 256.265C741.178 255.612 740.42 254.597 739.907 253.22C739.417 251.82 739.172 250.012 739.172 247.795C739.172 245.462 739.393 243.583 739.837 242.16C740.28 240.713 741.015 239.663 742.042 239.01C743.092 238.333 744.492 237.995 746.242 237.995C747.175 237.995 748.097 238.088 749.007 238.275C749.917 238.462 750.71 238.683 751.387 238.94V230.295H755.727V257H752.122L751.387 255.18C751.013 255.53 750.512 255.857 749.882 256.16C749.275 256.463 748.622 256.72 747.922 256.93C747.245 257.117 746.568 257.21 745.892 257.21ZM747.362 253.71C748.202 253.71 748.96 253.582 749.637 253.325C750.313 253.045 750.897 252.765 751.387 252.485V242.055C750.803 241.845 750.208 241.658 749.602 241.495C748.995 241.332 748.33 241.25 747.607 241.25C746.627 241.25 745.833 241.437 745.227 241.81C744.62 242.16 744.177 242.79 743.897 243.7C743.64 244.61 743.512 245.905 743.512 247.585C743.512 249.148 743.64 250.385 743.897 251.295C744.153 252.182 744.562 252.812 745.122 253.185C745.705 253.535 746.452 253.71 747.362 253.71ZM775.004 257V235.055H767.584V231.17H786.729V235.055H779.344V257H775.004ZM795.595 257.175C794.125 257.175 792.853 257.023 791.78 256.72C790.706 256.417 789.831 255.903 789.155 255.18C788.478 254.457 787.976 253.477 787.65 252.24C787.323 251.003 787.16 249.452 787.16 247.585C787.16 245.648 787.323 244.062 787.65 242.825C787.976 241.565 788.478 240.585 789.155 239.885C789.855 239.162 790.741 238.672 791.815 238.415C792.888 238.135 794.148 237.995 795.595 237.995C797.088 237.995 798.371 238.147 799.445 238.45C800.518 238.73 801.393 239.22 802.07 239.92C802.746 240.62 803.248 241.6 803.575 242.86C803.901 244.097 804.065 245.672 804.065 247.585C804.065 249.475 803.901 251.05 803.575 252.31C803.271 253.547 802.781 254.527 802.105 255.25C801.428 255.95 800.553 256.452 799.48 256.755C798.406 257.035 797.111 257.175 795.595 257.175ZM795.595 253.71C796.318 253.71 796.936 253.652 797.45 253.535C797.963 253.395 798.383 253.127 798.71 252.73C799.06 252.31 799.316 251.692 799.48 250.875C799.643 250.035 799.725 248.927 799.725 247.55C799.725 246.197 799.643 245.112 799.48 244.295C799.316 243.478 799.06 242.872 798.71 242.475C798.383 242.055 797.963 241.787 797.45 241.67C796.936 241.53 796.318 241.46 795.595 241.46C794.895 241.46 794.288 241.53 793.775 241.67C793.261 241.787 792.841 242.055 792.515 242.475C792.188 242.872 791.931 243.478 791.745 244.295C791.581 245.112 791.5 246.197 791.5 247.55C791.5 248.927 791.581 250.035 791.745 250.875C791.931 251.692 792.188 252.31 792.515 252.73C792.841 253.127 793.261 253.395 793.775 253.535C794.288 253.652 794.895 253.71 795.595 253.71ZM817.291 257V231.17H821.596V257H817.291ZM826.207 257V238.24H829.742L830.547 240.2C831.41 239.593 832.355 239.068 833.382 238.625C834.432 238.158 835.669 237.925 837.092 237.925C838.259 237.925 839.239 238.182 840.032 238.695C840.849 239.185 841.455 239.827 841.852 240.62C842.389 240.2 843.03 239.792 843.777 239.395C844.547 238.975 845.364 238.625 846.227 238.345C847.09 238.065 847.942 237.925 848.782 237.925C850.229 237.925 851.384 238.217 852.247 238.8C853.134 239.36 853.764 240.153 854.137 241.18C854.51 242.183 854.697 243.35 854.697 244.68V257H850.357V245.03C850.357 244.353 850.229 243.782 849.972 243.315C849.715 242.848 849.354 242.487 848.887 242.23C848.444 241.973 847.895 241.845 847.242 241.845C846.402 241.845 845.55 242.008 844.687 242.335C843.847 242.662 843.077 243.058 842.377 243.525C842.47 243.758 842.529 244.015 842.552 244.295C842.599 244.575 842.622 244.855 842.622 245.135V257H838.282V245.03C838.282 244.353 838.154 243.782 837.897 243.315C837.64 242.848 837.279 242.487 836.812 242.23C836.369 241.973 835.82 241.845 835.167 241.845C834.56 241.845 833.989 241.903 833.452 242.02C832.939 242.137 832.449 242.312 831.982 242.545C831.515 242.778 831.037 243.058 830.547 243.385V257H826.207ZM858.985 265.295V238.24H862.59L863.325 240.095C863.769 239.745 864.282 239.407 864.865 239.08C865.449 238.753 866.079 238.497 866.755 238.31C867.432 238.1 868.132 237.995 868.855 237.995C870.045 237.995 871.06 238.228 871.9 238.695C872.764 239.162 873.464 239.827 874 240.69C874.537 241.53 874.922 242.545 875.155 243.735C875.412 244.902 875.54 246.197 875.54 247.62C875.54 249.673 875.319 251.423 874.875 252.87C874.455 254.293 873.755 255.378 872.775 256.125C871.819 256.872 870.512 257.245 868.855 257.245C867.922 257.245 866.965 257.117 865.985 256.86C865.029 256.603 864.142 256.265 863.325 255.845V265.295H858.985ZM867.49 253.675C868.167 253.675 868.785 253.5 869.345 253.15C869.905 252.777 870.349 252.158 870.675 251.295C871.025 250.432 871.2 249.207 871.2 247.62C871.2 246.103 871.037 244.89 870.71 243.98C870.384 243.07 869.94 242.428 869.38 242.055C868.844 241.682 868.225 241.495 867.525 241.495C866.662 241.495 865.88 241.635 865.18 241.915C864.48 242.172 863.862 242.44 863.325 242.72V252.52C863.932 252.87 864.597 253.15 865.32 253.36C866.044 253.57 866.767 253.675 867.49 253.675ZM879.391 257V238.24H882.751L883.731 241.25C884.477 240.34 885.306 239.57 886.216 238.94C887.126 238.31 888.211 237.995 889.471 237.995C889.727 237.995 889.996 238.018 890.276 238.065C890.556 238.088 890.812 238.135 891.046 238.205V242.615C890.719 242.568 890.369 242.533 889.996 242.51C889.622 242.487 889.261 242.475 888.911 242.475C888.187 242.475 887.522 242.557 886.916 242.72C886.332 242.883 885.784 243.14 885.271 243.49C884.757 243.817 884.244 244.237 883.731 244.75V257H879.391ZM901.894 257.175C900.424 257.175 899.152 257.023 898.079 256.72C897.005 256.417 896.13 255.903 895.454 255.18C894.777 254.457 894.275 253.477 893.949 252.24C893.622 251.003 893.459 249.452 893.459 247.585C893.459 245.648 893.622 244.062 893.949 242.825C894.275 241.565 894.777 240.585 895.454 239.885C896.154 239.162 897.04 238.672 898.114 238.415C899.187 238.135 900.447 237.995 901.894 237.995C903.387 237.995 904.67 238.147 905.744 238.45C906.817 238.73 907.692 239.22 908.369 239.92C909.045 240.62 909.547 241.6 909.874 242.86C910.2 244.097 910.364 245.672 910.364 247.585C910.364 249.475 910.2 251.05 909.874 252.31C909.57 253.547 909.08 254.527 908.404 255.25C907.727 255.95 906.852 256.452 905.779 256.755C904.705 257.035 903.41 257.175 901.894 257.175ZM901.894 253.71C902.617 253.71 903.235 253.652 903.749 253.535C904.262 253.395 904.682 253.127 905.009 252.73C905.359 252.31 905.615 251.692 905.779 250.875C905.942 250.035 906.024 248.927 906.024 247.55C906.024 246.197 905.942 245.112 905.779 244.295C905.615 243.478 905.359 242.872 905.009 242.475C904.682 242.055 904.262 241.787 903.749 241.67C903.235 241.53 902.617 241.46 901.894 241.46C901.194 241.46 900.587 241.53 900.074 241.67C899.56 241.787 899.14 242.055 898.814 242.475C898.487 242.872 898.23 243.478 898.044 244.295C897.88 245.112 897.799 246.197 897.799 247.55C897.799 248.927 897.88 250.035 898.044 250.875C898.23 251.692 898.487 252.31 898.814 252.73C899.14 253.127 899.56 253.395 900.074 253.535C900.587 253.652 901.194 253.71 901.894 253.71ZM918.401 257L911.856 238.24H916.301L920.991 252.975L925.786 238.24H930.196L923.371 257H918.401ZM939.897 257.175C937.867 257.175 936.246 256.895 935.032 256.335C933.842 255.775 932.979 254.807 932.442 253.43C931.906 252.03 931.637 250.093 931.637 247.62C931.637 245.1 931.894 243.152 932.407 241.775C932.921 240.375 933.772 239.395 934.962 238.835C936.152 238.275 937.762 237.995 939.792 237.995C941.589 237.995 943.024 238.182 944.097 238.555C945.194 238.905 945.987 239.547 946.477 240.48C946.991 241.39 947.247 242.685 947.247 244.365C947.247 245.555 947.014 246.512 946.547 247.235C946.081 247.935 945.404 248.437 944.517 248.74C943.654 249.043 942.627 249.195 941.437 249.195H935.942C935.989 250.362 936.141 251.295 936.397 251.995C936.677 252.672 937.167 253.162 937.867 253.465C938.591 253.768 939.641 253.92 941.017 253.92H946.687V256.475C945.731 256.662 944.716 256.825 943.642 256.965C942.592 257.105 941.344 257.175 939.897 257.175ZM935.907 246.57H941.017C941.834 246.57 942.429 246.418 942.802 246.115C943.199 245.788 943.397 245.205 943.397 244.365C943.397 243.548 943.281 242.907 943.047 242.44C942.814 241.973 942.429 241.647 941.892 241.46C941.356 241.25 940.656 241.145 939.792 241.145C938.812 241.145 938.042 241.297 937.482 241.6C936.922 241.903 936.514 242.452 936.257 243.245C936.024 244.015 935.907 245.123 935.907 246.57ZM966.805 257V248.915L958.895 231.17H963.375L969.045 244.505L974.715 231.17H979.09L971.145 248.915V257H966.805ZM987.48 257.175C986.01 257.175 984.738 257.023 983.665 256.72C982.591 256.417 981.716 255.903 981.04 255.18C980.363 254.457 979.861 253.477 979.535 252.24C979.208 251.003 979.045 249.452 979.045 247.585C979.045 245.648 979.208 244.062 979.535 242.825C979.861 241.565 980.363 240.585 981.04 239.885C981.74 239.162 982.626 238.672 983.7 238.415C984.773 238.135 986.033 237.995 987.48 237.995C988.973 237.995 990.256 238.147 991.33 238.45C992.403 238.73 993.278 239.22 993.955 239.92C994.631 240.62 995.133 241.6 995.46 242.86C995.786 244.097 995.95 245.672 995.95 247.585C995.95 249.475 995.786 251.05 995.46 252.31C995.156 253.547 994.666 254.527 993.99 255.25C993.313 255.95 992.438 256.452 991.365 256.755C990.291 257.035 988.996 257.175 987.48 257.175ZM987.48 253.71C988.203 253.71 988.821 253.652 989.335 253.535C989.848 253.395 990.268 253.127 990.595 252.73C990.945 252.31 991.201 251.692 991.365 250.875C991.528 250.035 991.61 248.927 991.61 247.55C991.61 246.197 991.528 245.112 991.365 244.295C991.201 243.478 990.945 242.872 990.595 242.475C990.268 242.055 989.848 241.787 989.335 241.67C988.821 241.53 988.203 241.46 987.48 241.46C986.78 241.46 986.173 241.53 985.66 241.67C985.146 241.787 984.726 242.055 984.4 242.475C984.073 242.872 983.816 243.478 983.63 244.295C983.466 245.112 983.385 246.197 983.385 247.55C983.385 248.927 983.466 250.035 983.63 250.875C983.816 251.692 984.073 252.31 984.4 252.73C984.726 253.127 985.146 253.395 985.66 253.535C986.173 253.652 986.78 253.71 987.48 253.71ZM1005.23 257.21C1003.5 257.21 1002.16 256.732 1001.21 255.775C1000.25 254.795 999.771 253.372 999.771 251.505V238.24H1004.11V250.245C1004.11 251.482 1004.39 252.31 1004.95 252.73C1005.53 253.15 1006.32 253.36 1007.3 253.36C1008.11 253.36 1008.91 253.232 1009.68 252.975C1010.45 252.718 1011.17 252.345 1011.85 251.855V238.24H1016.19V257H1012.65L1011.85 255.04C1010.96 255.6 1009.94 256.102 1008.8 256.545C1007.68 256.988 1006.49 257.21 1005.23 257.21ZM1020.55 257V238.24H1023.91L1024.89 241.25C1025.64 240.34 1026.47 239.57 1027.38 238.94C1028.29 238.31 1029.37 237.995 1030.63 237.995C1030.89 237.995 1031.16 238.018 1031.44 238.065C1031.72 238.088 1031.97 238.135 1032.21 238.205V242.615C1031.88 242.568 1031.53 242.533 1031.16 242.51C1030.78 242.487 1030.42 242.475 1030.07 242.475C1029.35 242.475 1028.68 242.557 1028.08 242.72C1027.49 242.883 1026.95 243.14 1026.43 243.49C1025.92 243.817 1025.41 244.237 1024.89 244.75V257H1020.55ZM1050.57 257.175C1050.01 257.175 1049.38 257.117 1048.68 257C1048 256.907 1047.35 256.685 1046.72 256.335C1046.09 255.962 1045.58 255.413 1045.18 254.69C1044.78 253.967 1044.59 252.975 1044.59 251.715V236.805C1044.59 235.708 1044.75 234.798 1045.08 234.075C1045.4 233.328 1045.83 232.745 1046.37 232.325C1046.93 231.905 1047.54 231.613 1048.19 231.45C1048.87 231.263 1049.53 231.17 1050.19 231.17C1051.82 231.17 1053.29 231.193 1054.6 231.24C1055.9 231.287 1057.09 231.333 1058.17 231.38C1059.26 231.427 1060.28 231.485 1061.21 231.555V235.16H1051.45C1050.65 235.16 1050.02 235.358 1049.56 235.755C1049.11 236.152 1048.89 236.77 1048.89 237.61V242.195L1059.64 242.44V245.835L1048.89 246.08V250.525C1048.89 251.225 1049.01 251.762 1049.24 252.135C1049.5 252.508 1049.81 252.765 1050.19 252.905C1050.58 253.045 1050.99 253.115 1051.41 253.115H1061.21V256.72C1060.18 256.813 1059.06 256.895 1057.85 256.965C1056.64 257.012 1055.4 257.047 1054.14 257.07C1052.9 257.117 1051.71 257.152 1050.57 257.175ZM1076.6 257L1063.41 238.24H1067.82L1081.01 257H1076.6ZM1063.41 257L1070.62 246.29L1072.19 250.35L1067.82 257H1063.41ZM1073.8 249.02L1071.98 245.415L1076.6 238.275L1081.01 238.24L1073.8 249.02ZM1083.68 265.295V238.24H1087.29L1088.02 240.095C1088.47 239.745 1088.98 239.407 1089.56 239.08C1090.15 238.753 1090.78 238.497 1091.45 238.31C1092.13 238.1 1092.83 237.995 1093.55 237.995C1094.74 237.995 1095.76 238.228 1096.6 238.695C1097.46 239.162 1098.16 239.827 1098.7 240.69C1099.23 241.53 1099.62 242.545 1099.85 243.735C1100.11 244.902 1100.24 246.197 1100.24 247.62C1100.24 249.673 1100.02 251.423 1099.57 252.87C1099.15 254.293 1098.45 255.378 1097.47 256.125C1096.52 256.872 1095.21 257.245 1093.55 257.245C1092.62 257.245 1091.66 257.117 1090.68 256.86C1089.73 256.603 1088.84 256.265 1088.02 255.845V265.295H1083.68ZM1092.19 253.675C1092.86 253.675 1093.48 253.5 1094.04 253.15C1094.6 252.777 1095.05 252.158 1095.37 251.295C1095.72 250.432 1095.9 249.207 1095.9 247.62C1095.9 246.103 1095.73 244.89 1095.41 243.98C1095.08 243.07 1094.64 242.428 1094.08 242.055C1093.54 241.682 1092.92 241.495 1092.22 241.495C1091.36 241.495 1090.58 241.635 1089.88 241.915C1089.18 242.172 1088.56 242.44 1088.02 242.72V252.52C1088.63 252.87 1089.29 253.15 1090.02 253.36C1090.74 253.57 1091.46 253.675 1092.19 253.675ZM1111.75 257.175C1109.72 257.175 1108.1 256.895 1106.89 256.335C1105.7 255.775 1104.83 254.807 1104.3 253.43C1103.76 252.03 1103.49 250.093 1103.49 247.62C1103.49 245.1 1103.75 243.152 1104.26 241.775C1104.78 240.375 1105.63 239.395 1106.82 238.835C1108.01 238.275 1109.62 237.995 1111.65 237.995C1113.44 237.995 1114.88 238.182 1115.95 238.555C1117.05 238.905 1117.84 239.547 1118.33 240.48C1118.85 241.39 1119.1 242.685 1119.1 244.365C1119.1 245.555 1118.87 246.512 1118.4 247.235C1117.94 247.935 1117.26 248.437 1116.37 248.74C1115.51 249.043 1114.48 249.195 1113.29 249.195H1107.8C1107.84 250.362 1108 251.295 1108.25 251.995C1108.53 252.672 1109.02 253.162 1109.72 253.465C1110.45 253.768 1111.5 253.92 1112.87 253.92H1118.54V256.475C1117.59 256.662 1116.57 256.825 1115.5 256.965C1114.45 257.105 1113.2 257.175 1111.75 257.175ZM1107.76 246.57H1112.87C1113.69 246.57 1114.28 246.418 1114.66 246.115C1115.05 245.788 1115.25 245.205 1115.25 244.365C1115.25 243.548 1115.14 242.907 1114.9 242.44C1114.67 241.973 1114.28 241.647 1113.75 241.46C1113.21 241.25 1112.51 241.145 1111.65 241.145C1110.67 241.145 1109.9 241.297 1109.34 241.6C1108.78 241.903 1108.37 242.452 1108.11 243.245C1107.88 244.015 1107.76 245.123 1107.76 246.57ZM1122.96 257V238.24H1126.32L1127.3 241.25C1128.04 240.34 1128.87 239.57 1129.78 238.94C1130.69 238.31 1131.78 237.995 1133.04 237.995C1133.29 237.995 1133.56 238.018 1133.84 238.065C1134.12 238.088 1134.38 238.135 1134.61 238.205V242.615C1134.28 242.568 1133.93 242.533 1133.56 242.51C1133.19 242.487 1132.83 242.475 1132.48 242.475C1131.75 242.475 1131.09 242.557 1130.48 242.72C1129.9 242.883 1129.35 243.14 1128.84 243.49C1128.32 243.817 1127.81 244.237 1127.3 244.75V257H1122.96ZM1138.18 235.265C1137.73 235.265 1137.51 235.055 1137.51 234.635V231.45C1137.51 230.983 1137.73 230.75 1138.18 230.75H1141.47C1141.68 230.75 1141.83 230.82 1141.92 230.96C1142.04 231.1 1142.1 231.263 1142.1 231.45V234.635C1142.1 235.055 1141.89 235.265 1141.47 235.265H1138.18ZM1137.62 257V238.24H1141.96V257H1137.62ZM1154.07 257.175C1152.04 257.175 1150.42 256.895 1149.2 256.335C1148.01 255.775 1147.15 254.807 1146.61 253.43C1146.08 252.03 1145.81 250.093 1145.81 247.62C1145.81 245.1 1146.06 243.152 1146.58 241.775C1147.09 240.375 1147.94 239.395 1149.13 238.835C1150.32 238.275 1151.93 237.995 1153.96 237.995C1155.76 237.995 1157.19 238.182 1158.27 238.555C1159.36 238.905 1160.16 239.547 1160.65 240.48C1161.16 241.39 1161.42 242.685 1161.42 244.365C1161.42 245.555 1161.18 246.512 1160.72 247.235C1160.25 247.935 1159.57 248.437 1158.69 248.74C1157.82 249.043 1156.8 249.195 1155.61 249.195H1150.11C1150.16 250.362 1150.31 251.295 1150.57 251.995C1150.85 252.672 1151.34 253.162 1152.04 253.465C1152.76 253.768 1153.81 253.92 1155.19 253.92H1160.86V256.475C1159.9 256.662 1158.89 256.825 1157.81 256.965C1156.76 257.105 1155.51 257.175 1154.07 257.175ZM1150.08 246.57H1155.19C1156 246.57 1156.6 246.418 1156.97 246.115C1157.37 245.788 1157.57 245.205 1157.57 244.365C1157.57 243.548 1157.45 242.907 1157.22 242.44C1156.98 241.973 1156.6 241.647 1156.06 241.46C1155.53 241.25 1154.83 241.145 1153.96 241.145C1152.98 241.145 1152.21 241.297 1151.65 241.6C1151.09 241.903 1150.68 242.452 1150.43 243.245C1150.19 244.015 1150.08 245.123 1150.08 246.57ZM1165.27 257V238.24H1168.8L1169.61 240.2C1170.38 239.617 1171.31 239.092 1172.41 238.625C1173.53 238.158 1174.68 237.925 1175.87 237.925C1177.34 237.925 1178.5 238.228 1179.34 238.835C1180.18 239.418 1180.77 240.212 1181.12 241.215C1181.5 242.218 1181.68 243.315 1181.68 244.505V257H1177.34V245.03C1177.34 244.353 1177.22 243.782 1176.96 243.315C1176.7 242.848 1176.34 242.487 1175.87 242.23C1175.43 241.973 1174.88 241.845 1174.23 241.845C1173.62 241.845 1173.05 241.903 1172.51 242.02C1172 242.137 1171.51 242.312 1171.04 242.545C1170.58 242.778 1170.1 243.058 1169.61 243.385V257H1165.27ZM1193.19 257.21C1192.07 257.21 1191.03 257.07 1190.08 256.79C1189.14 256.487 1188.33 255.985 1187.63 255.285C1186.93 254.562 1186.38 253.582 1185.98 252.345C1185.61 251.108 1185.42 249.557 1185.42 247.69C1185.42 245.777 1185.6 244.19 1185.95 242.93C1186.32 241.67 1186.84 240.678 1187.52 239.955C1188.2 239.232 1189.01 238.73 1189.97 238.45C1190.95 238.147 1192.06 237.995 1193.3 237.995C1194.35 237.995 1195.41 238.053 1196.48 238.17C1197.55 238.263 1198.63 238.45 1199.7 238.73V241.215H1194.59C1193.47 241.215 1192.56 241.39 1191.86 241.74C1191.16 242.09 1190.64 242.732 1190.29 243.665C1189.94 244.598 1189.76 245.94 1189.76 247.69C1189.76 249.417 1189.94 250.735 1190.29 251.645C1190.64 252.532 1191.16 253.138 1191.86 253.465C1192.58 253.768 1193.51 253.92 1194.63 253.92H1199.98V256.37C1199.42 256.533 1198.77 256.685 1198.02 256.825C1197.27 256.942 1196.48 257.035 1195.64 257.105C1194.82 257.175 1194.01 257.21 1193.19 257.21ZM1210.84 257.175C1208.81 257.175 1207.19 256.895 1205.97 256.335C1204.78 255.775 1203.92 254.807 1203.38 253.43C1202.85 252.03 1202.58 250.093 1202.58 247.62C1202.58 245.1 1202.84 243.152 1203.35 241.775C1203.86 240.375 1204.71 239.395 1205.9 238.835C1207.09 238.275 1208.7 237.995 1210.73 237.995C1212.53 237.995 1213.97 238.182 1215.04 238.555C1216.14 238.905 1216.93 239.547 1217.42 240.48C1217.93 241.39 1218.19 242.685 1218.19 244.365C1218.19 245.555 1217.96 246.512 1217.49 247.235C1217.02 247.935 1216.35 248.437 1215.46 248.74C1214.6 249.043 1213.57 249.195 1212.38 249.195H1206.88C1206.93 250.362 1207.08 251.295 1207.34 251.995C1207.62 252.672 1208.11 253.162 1208.81 253.465C1209.53 253.768 1210.58 253.92 1211.96 253.92H1217.63V256.475C1216.67 256.662 1215.66 256.825 1214.58 256.965C1213.53 257.105 1212.29 257.175 1210.84 257.175ZM1206.85 246.57H1211.96C1212.78 246.57 1213.37 246.418 1213.74 246.115C1214.14 245.788 1214.34 245.205 1214.34 244.365C1214.34 243.548 1214.22 242.907 1213.99 242.44C1213.76 241.973 1213.37 241.647 1212.83 241.46C1212.3 241.25 1211.6 241.145 1210.73 241.145C1209.75 241.145 1208.98 241.297 1208.42 241.6C1207.86 241.903 1207.46 242.452 1207.2 243.245C1206.97 244.015 1206.85 245.123 1206.85 246.57ZM204.415 299V273.17H215.09C215.907 273.17 216.735 273.275 217.575 273.485C218.415 273.672 219.185 274.057 219.885 274.64C220.608 275.223 221.18 276.087 221.6 277.23C222.043 278.373 222.265 279.902 222.265 281.815C222.265 283.728 222.043 285.268 221.6 286.435C221.157 287.602 220.573 288.5 219.85 289.13C219.15 289.737 218.38 290.157 217.54 290.39C216.723 290.6 215.93 290.705 215.16 290.705C214.763 290.705 214.262 290.693 213.655 290.67C213.072 290.623 212.453 290.577 211.8 290.53C211.17 290.46 210.575 290.402 210.015 290.355C209.478 290.285 209.047 290.227 208.72 290.18V299H204.415ZM208.72 286.785H214.53C215.207 286.785 215.802 286.633 216.315 286.33C216.828 286.003 217.225 285.49 217.505 284.79C217.785 284.067 217.925 283.087 217.925 281.85C217.925 280.637 217.773 279.68 217.47 278.98C217.19 278.28 216.805 277.79 216.315 277.51C215.848 277.207 215.3 277.055 214.67 277.055H208.72V286.785ZM231.303 299.07C230.067 299.07 229.028 298.86 228.188 298.44C227.372 298.02 226.753 297.367 226.333 296.48C225.937 295.593 225.738 294.415 225.738 292.945V272.295H230.078V292.35C230.078 293.19 230.16 293.843 230.323 294.31C230.51 294.777 230.767 295.115 231.093 295.325C231.42 295.512 231.817 295.64 232.283 295.71L233.858 295.92V299.07H231.303ZM244.101 299.175C242.071 299.175 240.45 298.895 239.236 298.335C238.046 297.775 237.183 296.807 236.646 295.43C236.11 294.03 235.841 292.093 235.841 289.62C235.841 287.1 236.098 285.152 236.611 283.775C237.125 282.375 237.976 281.395 239.166 280.835C240.356 280.275 241.966 279.995 243.996 279.995C245.793 279.995 247.228 280.182 248.301 280.555C249.398 280.905 250.191 281.547 250.681 282.48C251.195 283.39 251.451 284.685 251.451 286.365C251.451 287.555 251.218 288.512 250.751 289.235C250.285 289.935 249.608 290.437 248.721 290.74C247.858 291.043 246.831 291.195 245.641 291.195H240.146C240.193 292.362 240.345 293.295 240.601 293.995C240.881 294.672 241.371 295.162 242.071 295.465C242.795 295.768 243.845 295.92 245.221 295.92H250.891V298.475C249.935 298.662 248.92 298.825 247.846 298.965C246.796 299.105 245.548 299.175 244.101 299.175ZM240.111 288.57H245.221C246.038 288.57 246.633 288.418 247.006 288.115C247.403 287.788 247.601 287.205 247.601 286.365C247.601 285.548 247.485 284.907 247.251 284.44C247.018 283.973 246.633 283.647 246.096 283.46C245.56 283.25 244.86 283.145 243.996 283.145C243.016 283.145 242.246 283.297 241.686 283.6C241.126 283.903 240.718 284.452 240.461 285.245C240.228 286.015 240.111 287.123 240.111 288.57ZM259.189 299.21C257.789 299.21 256.645 298.79 255.759 297.95C254.872 297.11 254.429 295.955 254.429 294.485V292.91C254.429 291.463 254.919 290.285 255.899 289.375C256.902 288.465 258.43 288.01 260.484 288.01H265.839V286.365C265.839 285.712 265.722 285.163 265.489 284.72C265.255 284.277 264.835 283.95 264.229 283.74C263.622 283.507 262.7 283.39 261.464 283.39H255.794V280.87C256.657 280.637 257.672 280.438 258.839 280.275C260.005 280.088 261.394 279.995 263.004 279.995C264.544 279.972 265.85 280.158 266.924 280.555C267.997 280.928 268.802 281.558 269.339 282.445C269.899 283.332 270.179 284.545 270.179 286.085V299H266.784L266.049 296.97C265.885 297.11 265.594 297.297 265.174 297.53C264.754 297.763 264.229 298.02 263.599 298.3C262.969 298.557 262.269 298.778 261.499 298.965C260.752 299.128 259.982 299.21 259.189 299.21ZM261.289 296.165C261.592 296.165 261.93 296.13 262.304 296.06C262.7 295.967 263.097 295.873 263.494 295.78C263.89 295.663 264.252 295.558 264.579 295.465C264.929 295.348 265.209 295.243 265.419 295.15C265.652 295.057 265.792 294.998 265.839 294.975V290.075L261.779 290.285C260.705 290.378 259.924 290.658 259.434 291.125C258.967 291.592 258.734 292.21 258.734 292.98V293.75C258.734 294.333 258.85 294.812 259.084 295.185C259.34 295.535 259.655 295.78 260.029 295.92C260.425 296.06 260.845 296.142 261.289 296.165ZM281.198 299.21C280.662 299.21 280.043 299.187 279.343 299.14C278.667 299.117 277.978 299.07 277.278 299C276.602 298.953 275.972 298.883 275.388 298.79C274.805 298.697 274.327 298.592 273.953 298.475V295.92H282.038C282.622 295.92 283.112 295.873 283.508 295.78C283.928 295.687 284.243 295.5 284.453 295.22C284.663 294.94 284.768 294.52 284.768 293.96V293.295C284.768 292.712 284.57 292.257 284.173 291.93C283.8 291.58 283.135 291.405 282.178 291.405H279.343C278.247 291.405 277.267 291.253 276.403 290.95C275.563 290.647 274.898 290.133 274.408 289.41C273.918 288.687 273.673 287.707 273.673 286.47V285.42C273.673 284.23 273.895 283.25 274.338 282.48C274.805 281.687 275.563 281.092 276.613 280.695C277.687 280.275 279.11 280.065 280.883 280.065C281.63 280.065 282.435 280.1 283.298 280.17C284.162 280.24 284.99 280.333 285.783 280.45C286.577 280.543 287.207 280.66 287.673 280.8V283.355H280.043C279.18 283.355 278.515 283.507 278.048 283.81C277.605 284.09 277.383 284.627 277.383 285.42V286.085C277.383 286.598 277.488 286.983 277.698 287.24C277.908 287.497 278.223 287.672 278.643 287.765C279.063 287.858 279.565 287.905 280.148 287.905H283.053C284.897 287.905 286.262 288.325 287.148 289.165C288.035 290.005 288.478 291.195 288.478 292.735V294.275C288.478 295.535 288.187 296.527 287.603 297.25C287.02 297.973 286.18 298.487 285.083 298.79C284.01 299.07 282.715 299.21 281.198 299.21ZM299.746 299.175C297.716 299.175 296.094 298.895 294.881 298.335C293.691 297.775 292.828 296.807 292.291 295.43C291.754 294.03 291.486 292.093 291.486 289.62C291.486 287.1 291.743 285.152 292.256 283.775C292.769 282.375 293.621 281.395 294.811 280.835C296.001 280.275 297.611 279.995 299.641 279.995C301.438 279.995 302.873 280.182 303.946 280.555C305.043 280.905 305.836 281.547 306.326 282.48C306.839 283.39 307.096 284.685 307.096 286.365C307.096 287.555 306.863 288.512 306.396 289.235C305.929 289.935 305.253 290.437 304.366 290.74C303.503 291.043 302.476 291.195 301.286 291.195H295.791C295.838 292.362 295.989 293.295 296.246 293.995C296.526 294.672 297.016 295.162 297.716 295.465C298.439 295.768 299.489 295.92 300.866 295.92H306.536V298.475C305.579 298.662 304.564 298.825 303.491 298.965C302.441 299.105 301.193 299.175 299.746 299.175ZM295.756 288.57H300.866C301.683 288.57 302.278 288.418 302.651 288.115C303.048 287.788 303.246 287.205 303.246 286.365C303.246 285.548 303.129 284.907 302.896 284.44C302.663 283.973 302.278 283.647 301.741 283.46C301.204 283.25 300.504 283.145 299.641 283.145C298.661 283.145 297.891 283.297 297.331 283.6C296.771 283.903 296.363 284.452 296.106 285.245C295.873 286.015 295.756 287.123 295.756 288.57ZM325.883 299V277.055H318.463V273.17H337.608V277.055H330.223V299H325.883ZM342.861 299.21C341.461 299.21 340.317 298.79 339.431 297.95C338.544 297.11 338.101 295.955 338.101 294.485V292.91C338.101 291.463 338.591 290.285 339.571 289.375C340.574 288.465 342.102 288.01 344.156 288.01H349.511V286.365C349.511 285.712 349.394 285.163 349.161 284.72C348.927 284.277 348.507 283.95 347.901 283.74C347.294 283.507 346.372 283.39 345.136 283.39H339.466V280.87C340.329 280.637 341.344 280.438 342.511 280.275C343.677 280.088 345.066 279.995 346.676 279.995C348.216 279.972 349.522 280.158 350.596 280.555C351.669 280.928 352.474 281.558 353.011 282.445C353.571 283.332 353.851 284.545 353.851 286.085V299H350.456L349.721 296.97C349.557 297.11 349.266 297.297 348.846 297.53C348.426 297.763 347.901 298.02 347.271 298.3C346.641 298.557 345.941 298.778 345.171 298.965C344.424 299.128 343.654 299.21 342.861 299.21ZM344.961 296.165C345.264 296.165 345.602 296.13 345.976 296.06C346.372 295.967 346.769 295.873 347.166 295.78C347.562 295.663 347.924 295.558 348.251 295.465C348.601 295.348 348.881 295.243 349.091 295.15C349.324 295.057 349.464 294.998 349.511 294.975V290.075L345.451 290.285C344.377 290.378 343.596 290.658 343.106 291.125C342.639 291.592 342.406 292.21 342.406 292.98V293.75C342.406 294.333 342.522 294.812 342.756 295.185C343.012 295.535 343.327 295.78 343.701 295.92C344.097 296.06 344.517 296.142 344.961 296.165ZM358.15 299V272.295H362.49V287.1H364.87L369.56 280.24H374.005L368.055 289.06L374.495 299H370.05L364.8 290.985H362.49V299H358.15ZM384.614 299.175C382.584 299.175 380.962 298.895 379.749 298.335C378.559 297.775 377.696 296.807 377.159 295.43C376.622 294.03 376.354 292.093 376.354 289.62C376.354 287.1 376.611 285.152 377.124 283.775C377.637 282.375 378.489 281.395 379.679 280.835C380.869 280.275 382.479 279.995 384.509 279.995C386.306 279.995 387.741 280.182 388.814 280.555C389.911 280.905 390.704 281.547 391.194 282.48C391.707 283.39 391.964 284.685 391.964 286.365C391.964 287.555 391.731 288.512 391.264 289.235C390.797 289.935 390.121 290.437 389.234 290.74C388.371 291.043 387.344 291.195 386.154 291.195H380.659C380.706 292.362 380.857 293.295 381.114 293.995C381.394 294.672 381.884 295.162 382.584 295.465C383.307 295.768 384.357 295.92 385.734 295.92H391.404V298.475C390.447 298.662 389.432 298.825 388.359 298.965C387.309 299.105 386.061 299.175 384.614 299.175ZM380.624 288.57H385.734C386.551 288.57 387.146 288.418 387.519 288.115C387.916 287.788 388.114 287.205 388.114 286.365C388.114 285.548 387.997 284.907 387.764 284.44C387.531 283.973 387.146 283.647 386.609 283.46C386.072 283.25 385.372 283.145 384.509 283.145C383.529 283.145 382.759 283.297 382.199 283.6C381.639 283.903 381.231 284.452 380.974 285.245C380.741 286.015 380.624 287.123 380.624 288.57ZM403.576 299L411.976 273.17H417.436L425.836 299H421.321L419.326 292.875H409.981L408.021 299H403.576ZM410.996 288.99H418.276L414.636 276.88L410.996 288.99ZM437.47 299L440.445 273.17H444.645L450.91 293.855L457.14 273.17H461.34L464.385 299H460.185L457.805 278.7L458.505 278.77L452.905 299H448.845L443.175 278.77L443.91 278.735L441.635 299H437.47ZM475.775 299.175C474.305 299.175 473.034 299.023 471.96 298.72C470.887 298.417 470.012 297.903 469.335 297.18C468.659 296.457 468.157 295.477 467.83 294.24C467.504 293.003 467.34 291.452 467.34 289.585C467.34 287.648 467.504 286.062 467.83 284.825C468.157 283.565 468.659 282.585 469.335 281.885C470.035 281.162 470.922 280.672 471.995 280.415C473.069 280.135 474.329 279.995 475.775 279.995C477.269 279.995 478.552 280.147 479.625 280.45C480.699 280.73 481.574 281.22 482.25 281.92C482.927 282.62 483.429 283.6 483.755 284.86C484.082 286.097 484.245 287.672 484.245 289.585C484.245 291.475 484.082 293.05 483.755 294.31C483.452 295.547 482.962 296.527 482.285 297.25C481.609 297.95 480.734 298.452 479.66 298.755C478.587 299.035 477.292 299.175 475.775 299.175ZM475.775 295.71C476.499 295.71 477.117 295.652 477.63 295.535C478.144 295.395 478.564 295.127 478.89 294.73C479.24 294.31 479.497 293.692 479.66 292.875C479.824 292.035 479.905 290.927 479.905 289.55C479.905 288.197 479.824 287.112 479.66 286.295C479.497 285.478 479.24 284.872 478.89 284.475C478.564 284.055 478.144 283.787 477.63 283.67C477.117 283.53 476.499 283.46 475.775 283.46C475.075 283.46 474.469 283.53 473.955 283.67C473.442 283.787 473.022 284.055 472.695 284.475C472.369 284.872 472.112 285.478 471.925 286.295C471.762 287.112 471.68 288.197 471.68 289.55C471.68 290.927 471.762 292.035 471.925 292.875C472.112 293.692 472.369 294.31 472.695 294.73C473.022 295.127 473.442 295.395 473.955 295.535C474.469 295.652 475.075 295.71 475.775 295.71ZM488.101 299V280.24H491.636L492.441 282.2C493.305 281.593 494.25 281.068 495.276 280.625C496.326 280.158 497.563 279.925 498.986 279.925C500.153 279.925 501.133 280.182 501.926 280.695C502.743 281.185 503.35 281.827 503.746 282.62C504.283 282.2 504.925 281.792 505.671 281.395C506.441 280.975 507.258 280.625 508.121 280.345C508.985 280.065 509.836 279.925 510.676 279.925C512.123 279.925 513.278 280.217 514.141 280.8C515.028 281.36 515.658 282.153 516.031 283.18C516.405 284.183 516.591 285.35 516.591 286.68V299H512.251V287.03C512.251 286.353 512.123 285.782 511.866 285.315C511.61 284.848 511.248 284.487 510.781 284.23C510.338 283.973 509.79 283.845 509.136 283.845C508.296 283.845 507.445 284.008 506.581 284.335C505.741 284.662 504.971 285.058 504.271 285.525C504.365 285.758 504.423 286.015 504.446 286.295C504.493 286.575 504.516 286.855 504.516 287.135V299H500.176V287.03C500.176 286.353 500.048 285.782 499.791 285.315C499.535 284.848 499.173 284.487 498.706 284.23C498.263 283.973 497.715 283.845 497.061 283.845C496.455 283.845 495.883 283.903 495.346 284.02C494.833 284.137 494.343 284.312 493.876 284.545C493.41 284.778 492.931 285.058 492.441 285.385V299H488.101ZM528.545 299.175C526.515 299.175 524.893 298.895 523.68 298.335C522.49 297.775 521.626 296.807 521.09 295.43C520.553 294.03 520.285 292.093 520.285 289.62C520.285 287.1 520.541 285.152 521.055 283.775C521.568 282.375 522.42 281.395 523.61 280.835C524.8 280.275 526.41 279.995 528.44 279.995C530.236 279.995 531.671 280.182 532.745 280.555C533.841 280.905 534.635 281.547 535.125 282.48C535.638 283.39 535.895 284.685 535.895 286.365C535.895 287.555 535.661 288.512 535.195 289.235C534.728 289.935 534.051 290.437 533.165 290.74C532.301 291.043 531.275 291.195 530.085 291.195H524.59C524.636 292.362 524.788 293.295 525.045 293.995C525.325 294.672 525.815 295.162 526.515 295.465C527.238 295.768 528.288 295.92 529.665 295.92H535.335V298.475C534.378 298.662 533.363 298.825 532.29 298.965C531.24 299.105 529.991 299.175 528.545 299.175ZM524.555 288.57H529.665C530.481 288.57 531.076 288.418 531.45 288.115C531.846 287.788 532.045 287.205 532.045 286.365C532.045 285.548 531.928 284.907 531.695 284.44C531.461 283.973 531.076 283.647 530.54 283.46C530.003 283.25 529.303 283.145 528.44 283.145C527.46 283.145 526.69 283.297 526.13 283.6C525.57 283.903 525.161 284.452 524.905 285.245C524.671 286.015 524.555 287.123 524.555 288.57ZM539.747 299V280.24H543.282L544.087 282.2C544.857 281.617 545.79 281.092 546.887 280.625C548.007 280.158 549.162 279.925 550.352 279.925C551.822 279.925 552.977 280.228 553.817 280.835C554.657 281.418 555.252 282.212 555.602 283.215C555.975 284.218 556.162 285.315 556.162 286.505V299H551.822V287.03C551.822 286.353 551.694 285.782 551.437 285.315C551.18 284.848 550.819 284.487 550.352 284.23C549.909 283.973 549.36 283.845 548.707 283.845C548.1 283.845 547.529 283.903 546.992 284.02C546.479 284.137 545.989 284.312 545.522 284.545C545.055 284.778 544.577 285.058 544.087 285.385V299H539.747ZM567.319 299C565.966 299 564.857 298.802 563.994 298.405C563.131 297.985 562.501 297.297 562.104 296.34C561.731 295.383 561.556 294.123 561.579 292.56L561.719 283.74H558.779V280.94L561.859 280.24L562.489 274.99H565.884V280.24H570.644V283.74H565.884V292.525C565.884 293.132 565.942 293.633 566.059 294.03C566.176 294.403 566.339 294.707 566.549 294.94C566.782 295.15 567.027 295.302 567.284 295.395C567.541 295.488 567.809 295.547 568.089 295.57L570.434 295.815V299H567.319ZM588.759 299V277.055H581.339V273.17H600.484V277.055H593.099V299H588.759ZM609.35 299.175C607.88 299.175 606.608 299.023 605.535 298.72C604.461 298.417 603.586 297.903 602.91 297.18C602.233 296.457 601.731 295.477 601.405 294.24C601.078 293.003 600.915 291.452 600.915 289.585C600.915 287.648 601.078 286.062 601.405 284.825C601.731 283.565 602.233 282.585 602.91 281.885C603.61 281.162 604.496 280.672 605.57 280.415C606.643 280.135 607.903 279.995 609.35 279.995C610.843 279.995 612.126 280.147 613.2 280.45C614.273 280.73 615.148 281.22 615.825 281.92C616.501 282.62 617.003 283.6 617.33 284.86C617.656 286.097 617.82 287.672 617.82 289.585C617.82 291.475 617.656 293.05 617.33 294.31C617.026 295.547 616.536 296.527 615.86 297.25C615.183 297.95 614.308 298.452 613.235 298.755C612.161 299.035 610.866 299.175 609.35 299.175ZM609.35 295.71C610.073 295.71 610.691 295.652 611.205 295.535C611.718 295.395 612.138 295.127 612.465 294.73C612.815 294.31 613.071 293.692 613.235 292.875C613.398 292.035 613.48 290.927 613.48 289.55C613.48 288.197 613.398 287.112 613.235 286.295C613.071 285.478 612.815 284.872 612.465 284.475C612.138 284.055 611.718 283.787 611.205 283.67C610.691 283.53 610.073 283.46 609.35 283.46C608.65 283.46 608.043 283.53 607.53 283.67C607.016 283.787 606.596 284.055 606.27 284.475C605.943 284.872 605.686 285.478 605.5 286.295C605.336 287.112 605.255 288.197 605.255 289.55C605.255 290.927 605.336 292.035 605.5 292.875C605.686 293.692 605.943 294.31 606.27 294.73C606.596 295.127 607.016 295.395 607.53 295.535C608.043 295.652 608.65 295.71 609.35 295.71ZM637.031 299.175C636.471 299.175 635.841 299.117 635.141 299C634.464 298.907 633.811 298.685 633.181 298.335C632.551 297.962 632.038 297.413 631.641 296.69C631.244 295.967 631.046 294.975 631.046 293.715V278.805C631.046 277.708 631.209 276.798 631.536 276.075C631.863 275.328 632.294 274.745 632.831 274.325C633.391 273.905 633.998 273.613 634.651 273.45C635.328 273.263 635.993 273.17 636.646 273.17C638.279 273.17 639.749 273.193 641.056 273.24C642.363 273.287 643.553 273.333 644.626 273.38C645.723 273.427 646.738 273.485 647.671 273.555V277.16H637.906C637.113 277.16 636.483 277.358 636.016 277.755C635.573 278.152 635.351 278.77 635.351 279.61V284.195L646.096 284.44V287.835L635.351 288.08V292.525C635.351 293.225 635.468 293.762 635.701 294.135C635.958 294.508 636.273 294.765 636.646 294.905C637.043 295.045 637.451 295.115 637.871 295.115H647.671V298.72C646.644 298.813 645.524 298.895 644.311 298.965C643.098 299.012 641.861 299.047 640.601 299.07C639.364 299.117 638.174 299.152 637.031 299.175ZM656.482 299L649.937 280.24H654.382L659.072 294.975L663.867 280.24H668.277L661.452 299H656.482ZM674.198 299.21C672.798 299.21 671.655 298.79 670.768 297.95C669.882 297.11 669.438 295.955 669.438 294.485V292.91C669.438 291.463 669.928 290.285 670.908 289.375C671.912 288.465 673.44 288.01 675.493 288.01H680.848V286.365C680.848 285.712 680.732 285.163 680.498 284.72C680.265 284.277 679.845 283.95 679.238 283.74C678.632 283.507 677.71 283.39 676.473 283.39H670.803V280.87C671.667 280.637 672.682 280.438 673.848 280.275C675.015 280.088 676.403 279.995 678.013 279.995C679.553 279.972 680.86 280.158 681.933 280.555C683.007 280.928 683.812 281.558 684.348 282.445C684.908 283.332 685.188 284.545 685.188 286.085V299H681.793L681.058 296.97C680.895 297.11 680.603 297.297 680.183 297.53C679.763 297.763 679.238 298.02 678.608 298.3C677.978 298.557 677.278 298.778 676.508 298.965C675.762 299.128 674.992 299.21 674.198 299.21ZM676.298 296.165C676.602 296.165 676.94 296.13 677.313 296.06C677.71 295.967 678.107 295.873 678.503 295.78C678.9 295.663 679.262 295.558 679.588 295.465C679.938 295.348 680.218 295.243 680.428 295.15C680.662 295.057 680.802 294.998 680.848 294.975V290.075L676.788 290.285C675.715 290.378 674.933 290.658 674.443 291.125C673.977 291.592 673.743 292.21 673.743 292.98V293.75C673.743 294.333 673.86 294.812 674.093 295.185C674.35 295.535 674.665 295.78 675.038 295.92C675.435 296.06 675.855 296.142 676.298 296.165ZM695.053 299.07C693.817 299.07 692.778 298.86 691.938 298.44C691.122 298.02 690.503 297.367 690.083 296.48C689.687 295.593 689.488 294.415 689.488 292.945V272.295H693.828V292.35C693.828 293.19 693.91 293.843 694.073 294.31C694.26 294.777 694.517 295.115 694.843 295.325C695.17 295.512 695.567 295.64 696.033 295.71L697.608 295.92V299.07H695.053ZM705.611 299.21C703.885 299.21 702.543 298.732 701.586 297.775C700.63 296.795 700.151 295.372 700.151 293.505V280.24H704.491V292.245C704.491 293.482 704.771 294.31 705.331 294.73C705.915 295.15 706.696 295.36 707.676 295.36C708.493 295.36 709.286 295.232 710.056 294.975C710.826 294.718 711.55 294.345 712.226 293.855V280.24H716.566V299H713.031L712.226 297.04C711.34 297.6 710.325 298.102 709.181 298.545C708.061 298.988 706.871 299.21 705.611 299.21ZM724.819 299.21C723.419 299.21 722.275 298.79 721.389 297.95C720.502 297.11 720.059 295.955 720.059 294.485V292.91C720.059 291.463 720.549 290.285 721.529 289.375C722.532 288.465 724.06 288.01 726.114 288.01H731.469V286.365C731.469 285.712 731.352 285.163 731.119 284.72C730.885 284.277 730.465 283.95 729.859 283.74C729.252 283.507 728.33 283.39 727.094 283.39H721.424V280.87C722.287 280.637 723.302 280.438 724.469 280.275C725.635 280.088 727.024 279.995 728.634 279.995C730.174 279.972 731.48 280.158 732.554 280.555C733.627 280.928 734.432 281.558 734.969 282.445C735.529 283.332 735.809 284.545 735.809 286.085V299H732.414L731.679 296.97C731.515 297.11 731.224 297.297 730.804 297.53C730.384 297.763 729.859 298.02 729.229 298.3C728.599 298.557 727.899 298.778 727.129 298.965C726.382 299.128 725.612 299.21 724.819 299.21ZM726.919 296.165C727.222 296.165 727.56 296.13 727.934 296.06C728.33 295.967 728.727 295.873 729.124 295.78C729.52 295.663 729.882 295.558 730.209 295.465C730.559 295.348 730.839 295.243 731.049 295.15C731.282 295.057 731.422 294.998 731.469 294.975V290.075L727.409 290.285C726.335 290.378 725.554 290.658 725.064 291.125C724.597 291.592 724.364 292.21 724.364 292.98V293.75C724.364 294.333 724.48 294.812 724.714 295.185C724.97 295.535 725.285 295.78 725.659 295.92C726.055 296.06 726.475 296.142 726.919 296.165ZM746.933 299C745.58 299 744.472 298.802 743.608 298.405C742.745 297.985 742.115 297.297 741.718 296.34C741.345 295.383 741.17 294.123 741.193 292.56L741.333 283.74H738.393V280.94L741.473 280.24L742.103 274.99H745.498V280.24H750.258V283.74H745.498V292.525C745.498 293.132 745.557 293.633 745.673 294.03C745.79 294.403 745.953 294.707 746.163 294.94C746.397 295.15 746.642 295.302 746.898 295.395C747.155 295.488 747.423 295.547 747.703 295.57L750.048 295.815V299H746.933ZM761.103 299.175C759.073 299.175 757.452 298.895 756.238 298.335C755.048 297.775 754.185 296.807 753.648 295.43C753.112 294.03 752.843 292.093 752.843 289.62C752.843 287.1 753.1 285.152 753.613 283.775C754.127 282.375 754.978 281.395 756.168 280.835C757.358 280.275 758.968 279.995 760.998 279.995C762.795 279.995 764.23 280.182 765.303 280.555C766.4 280.905 767.193 281.547 767.683 282.48C768.197 283.39 768.453 284.685 768.453 286.365C768.453 287.555 768.22 288.512 767.753 289.235C767.287 289.935 766.61 290.437 765.723 290.74C764.86 291.043 763.833 291.195 762.643 291.195H757.148C757.195 292.362 757.347 293.295 757.603 293.995C757.883 294.672 758.373 295.162 759.073 295.465C759.797 295.768 760.847 295.92 762.223 295.92H767.893V298.475C766.937 298.662 765.922 298.825 764.848 298.965C763.798 299.105 762.55 299.175 761.103 299.175ZM757.113 288.57H762.223C763.04 288.57 763.635 288.418 764.008 288.115C764.405 287.788 764.603 287.205 764.603 286.365C764.603 285.548 764.487 284.907 764.253 284.44C764.02 283.973 763.635 283.647 763.098 283.46C762.562 283.25 761.862 283.145 760.998 283.145C760.018 283.145 759.248 283.297 758.688 283.6C758.128 283.903 757.72 284.452 757.463 285.245C757.23 286.015 757.113 287.123 757.113 288.57ZM780.066 299L788.466 273.17H793.926L802.326 299H797.811L795.816 292.875H786.471L784.511 299H780.066ZM787.486 288.99H794.766L791.126 276.88L787.486 288.99ZM805.289 299V280.24H808.824L809.629 282.2C810.399 281.617 811.332 281.092 812.429 280.625C813.549 280.158 814.704 279.925 815.894 279.925C817.364 279.925 818.519 280.228 819.359 280.835C820.199 281.418 820.794 282.212 821.144 283.215C821.517 284.218 821.704 285.315 821.704 286.505V299H817.364V287.03C817.364 286.353 817.236 285.782 816.979 285.315C816.722 284.848 816.361 284.487 815.894 284.23C815.451 283.973 814.902 283.845 814.249 283.845C813.642 283.845 813.071 283.903 812.534 284.02C812.021 284.137 811.531 284.312 811.064 284.545C810.597 284.778 810.119 285.058 809.629 285.385V299H805.289ZM832.161 299.21C830.691 299.21 829.454 298.895 828.451 298.265C827.448 297.612 826.689 296.597 826.176 295.22C825.686 293.82 825.441 292.012 825.441 289.795C825.441 287.462 825.663 285.583 826.106 284.16C826.549 282.713 827.284 281.663 828.311 281.01C829.361 280.333 830.761 279.995 832.511 279.995C833.444 279.995 834.366 280.088 835.276 280.275C836.186 280.462 836.979 280.683 837.656 280.94V272.295H841.996V299H838.391L837.656 297.18C837.283 297.53 836.781 297.857 836.151 298.16C835.544 298.463 834.891 298.72 834.191 298.93C833.514 299.117 832.838 299.21 832.161 299.21ZM833.631 295.71C834.471 295.71 835.229 295.582 835.906 295.325C836.583 295.045 837.166 294.765 837.656 294.485V284.055C837.073 283.845 836.478 283.658 835.871 283.495C835.264 283.332 834.599 283.25 833.876 283.25C832.896 283.25 832.103 283.437 831.496 283.81C830.889 284.16 830.446 284.79 830.166 285.7C829.909 286.61 829.781 287.905 829.781 289.585C829.781 291.148 829.909 292.385 830.166 293.295C830.423 294.182 830.831 294.812 831.391 295.185C831.974 295.535 832.721 295.71 833.631 295.71ZM861.274 299V277.055H853.854V273.17H872.999V277.055H865.614V299H861.274ZM881.689 299.175C879.659 299.175 878.038 298.895 876.824 298.335C875.634 297.775 874.771 296.807 874.234 295.43C873.698 294.03 873.429 292.093 873.429 289.62C873.429 287.1 873.686 285.152 874.199 283.775C874.713 282.375 875.564 281.395 876.754 280.835C877.944 280.275 879.554 279.995 881.584 279.995C883.381 279.995 884.816 280.182 885.889 280.555C886.986 280.905 887.779 281.547 888.269 282.48C888.783 283.39 889.039 284.685 889.039 286.365C889.039 287.555 888.806 288.512 888.339 289.235C887.873 289.935 887.196 290.437 886.309 290.74C885.446 291.043 884.419 291.195 883.229 291.195H877.734C877.781 292.362 877.933 293.295 878.189 293.995C878.469 294.672 878.959 295.162 879.659 295.465C880.383 295.768 881.433 295.92 882.809 295.92H888.479V298.475C887.523 298.662 886.508 298.825 885.434 298.965C884.384 299.105 883.136 299.175 881.689 299.175ZM877.699 288.57H882.809C883.626 288.57 884.221 288.418 884.594 288.115C884.991 287.788 885.189 287.205 885.189 286.365C885.189 285.548 885.073 284.907 884.839 284.44C884.606 283.973 884.221 283.647 883.684 283.46C883.148 283.25 882.448 283.145 881.584 283.145C880.604 283.145 879.834 283.297 879.274 283.6C878.714 283.903 878.306 284.452 878.049 285.245C877.816 286.015 877.699 287.123 877.699 288.57ZM898.457 299.07C897.22 299.07 896.182 298.86 895.342 298.44C894.525 298.02 893.907 297.367 893.487 296.48C893.09 295.593 892.892 294.415 892.892 292.945V272.295H897.232V292.35C897.232 293.19 897.313 293.843 897.477 294.31C897.663 294.777 897.92 295.115 898.247 295.325C898.573 295.512 898.97 295.64 899.437 295.71L901.012 295.92V299.07H898.457ZM909.155 299.07C907.918 299.07 906.88 298.86 906.04 298.44C905.223 298.02 904.605 297.367 904.185 296.48C903.788 295.593 903.59 294.415 903.59 292.945V272.295H907.93V292.35C907.93 293.19 908.011 293.843 908.175 294.31C908.361 294.777 908.618 295.115 908.945 295.325C909.271 295.512 909.668 295.64 910.135 295.71L911.71 295.92V299.07H909.155ZM933.178 299.175C931.755 299.175 930.436 299.058 929.223 298.825C928.01 298.568 926.96 298.137 926.073 297.53C925.186 296.9 924.498 296.048 924.008 294.975C923.541 293.878 923.308 292.478 923.308 290.775V273.17H927.613V290.775C927.613 291.895 927.835 292.793 928.278 293.47C928.721 294.123 929.351 294.59 930.168 294.87C931.008 295.15 932.011 295.29 933.178 295.29C934.345 295.29 935.336 295.15 936.153 294.87C936.993 294.59 937.635 294.123 938.078 293.47C938.521 292.793 938.743 291.895 938.743 290.775V273.17H943.048V290.775C943.048 292.478 942.803 293.878 942.313 294.975C941.846 296.048 941.17 296.9 940.283 297.53C939.396 298.137 938.346 298.568 937.133 298.825C935.943 299.058 934.625 299.175 933.178 299.175ZM954.026 299.21C953.489 299.21 952.871 299.187 952.171 299.14C951.494 299.117 950.806 299.07 950.106 299C949.429 298.953 948.799 298.883 948.216 298.79C947.632 298.697 947.154 298.592 946.781 298.475V295.92H954.866C955.449 295.92 955.939 295.873 956.336 295.78C956.756 295.687 957.071 295.5 957.281 295.22C957.491 294.94 957.596 294.52 957.596 293.96V293.295C957.596 292.712 957.397 292.257 957.001 291.93C956.627 291.58 955.962 291.405 955.006 291.405H952.171C951.074 291.405 950.094 291.253 949.231 290.95C948.391 290.647 947.726 290.133 947.236 289.41C946.746 288.687 946.501 287.707 946.501 286.47V285.42C946.501 284.23 946.722 283.25 947.166 282.48C947.632 281.687 948.391 281.092 949.441 280.695C950.514 280.275 951.937 280.065 953.711 280.065C954.457 280.065 955.262 280.1 956.126 280.17C956.989 280.24 957.817 280.333 958.611 280.45C959.404 280.543 960.034 280.66 960.501 280.8V283.355H952.871C952.007 283.355 951.342 283.507 950.876 283.81C950.432 284.09 950.211 284.627 950.211 285.42V286.085C950.211 286.598 950.316 286.983 950.526 287.24C950.736 287.497 951.051 287.672 951.471 287.765C951.891 287.858 952.392 287.905 952.976 287.905H955.881C957.724 287.905 959.089 288.325 959.976 289.165C960.862 290.005 961.306 291.195 961.306 292.735V294.275C961.306 295.535 961.014 296.527 960.431 297.25C959.847 297.973 959.007 298.487 957.911 298.79C956.837 299.07 955.542 299.21 954.026 299.21ZM979.003 299L972.668 273.17H977.148L981.803 292.7L987.193 273.17H991.253L996.608 292.7L1001.26 273.17H1005.74L999.408 299H994.928L989.223 279.435L983.483 299H979.003ZM1008.76 299V272.33H1013.1V282.2C1013.85 281.64 1014.78 281.127 1015.9 280.66C1017.04 280.17 1018.21 279.925 1019.4 279.925C1020.78 279.925 1021.89 280.205 1022.73 280.765C1023.59 281.325 1024.21 282.107 1024.58 283.11C1024.98 284.09 1025.18 285.21 1025.18 286.47V299H1020.84V286.995C1020.84 286.342 1020.71 285.782 1020.45 285.315C1020.19 284.825 1019.83 284.463 1019.37 284.23C1018.9 283.973 1018.35 283.845 1017.72 283.845C1017.11 283.845 1016.55 283.915 1016.04 284.055C1015.53 284.172 1015.03 284.347 1014.54 284.58C1014.07 284.813 1013.59 285.082 1013.1 285.385V299H1008.76ZM1033.39 299.21C1031.99 299.21 1030.85 298.79 1029.96 297.95C1029.08 297.11 1028.63 295.955 1028.63 294.485V292.91C1028.63 291.463 1029.12 290.285 1030.1 289.375C1031.11 288.465 1032.63 288.01 1034.69 288.01H1040.04V286.365C1040.04 285.712 1039.93 285.163 1039.69 284.72C1039.46 284.277 1039.04 283.95 1038.43 283.74C1037.83 283.507 1036.9 283.39 1035.67 283.39H1030V280.87C1030.86 280.637 1031.88 280.438 1033.04 280.275C1034.21 280.088 1035.6 279.995 1037.21 279.995C1038.75 279.972 1040.05 280.158 1041.13 280.555C1042.2 280.928 1043.01 281.558 1043.54 282.445C1044.1 283.332 1044.38 284.545 1044.38 286.085V299H1040.99L1040.25 296.97C1040.09 297.11 1039.8 297.297 1039.38 297.53C1038.96 297.763 1038.43 298.02 1037.8 298.3C1037.17 298.557 1036.47 298.778 1035.7 298.965C1034.96 299.128 1034.19 299.21 1033.39 299.21ZM1035.49 296.165C1035.8 296.165 1036.13 296.13 1036.51 296.06C1036.9 295.967 1037.3 295.873 1037.7 295.78C1038.09 295.663 1038.46 295.558 1038.78 295.465C1039.13 295.348 1039.41 295.243 1039.62 295.15C1039.86 295.057 1040 294.998 1040.04 294.975V290.075L1035.98 290.285C1034.91 290.378 1034.13 290.658 1033.64 291.125C1033.17 291.592 1032.94 292.21 1032.94 292.98V293.75C1032.94 294.333 1033.05 294.812 1033.29 295.185C1033.54 295.535 1033.86 295.78 1034.23 295.92C1034.63 296.06 1035.05 296.142 1035.49 296.165ZM1055.51 299C1054.15 299 1053.05 298.802 1052.18 298.405C1051.32 297.985 1050.69 297.297 1050.29 296.34C1049.92 295.383 1049.74 294.123 1049.77 292.56L1049.91 283.74H1046.97V280.94L1050.05 280.24L1050.68 274.99H1054.07V280.24H1058.83V283.74H1054.07V292.525C1054.07 293.132 1054.13 293.633 1054.25 294.03C1054.36 294.403 1054.53 294.707 1054.74 294.94C1054.97 295.15 1055.22 295.302 1055.47 295.395C1055.73 295.488 1056 295.547 1056.28 295.57L1058.62 295.815V299H1055.51ZM1077.72 299V290.915L1069.81 273.17H1074.29L1079.96 286.505L1085.63 273.17H1090L1082.06 290.915V299H1077.72ZM1098.39 299.175C1096.92 299.175 1095.65 299.023 1094.58 298.72C1093.5 298.417 1092.63 297.903 1091.95 297.18C1091.28 296.457 1090.77 295.477 1090.45 294.24C1090.12 293.003 1089.96 291.452 1089.96 289.585C1089.96 287.648 1090.12 286.062 1090.45 284.825C1090.77 283.565 1091.28 282.585 1091.95 281.885C1092.65 281.162 1093.54 280.672 1094.61 280.415C1095.69 280.135 1096.95 279.995 1098.39 279.995C1099.89 279.995 1101.17 280.147 1102.24 280.45C1103.32 280.73 1104.19 281.22 1104.87 281.92C1105.54 282.62 1106.05 283.6 1106.37 284.86C1106.7 286.097 1106.86 287.672 1106.86 289.585C1106.86 291.475 1106.7 293.05 1106.37 294.31C1106.07 295.547 1105.58 296.527 1104.9 297.25C1104.23 297.95 1103.35 298.452 1102.28 298.755C1101.2 299.035 1099.91 299.175 1098.39 299.175ZM1098.39 295.71C1099.12 295.71 1099.73 295.652 1100.25 295.535C1100.76 295.395 1101.18 295.127 1101.51 294.73C1101.86 294.31 1102.11 293.692 1102.28 292.875C1102.44 292.035 1102.52 290.927 1102.52 289.55C1102.52 288.197 1102.44 287.112 1102.28 286.295C1102.11 285.478 1101.86 284.872 1101.51 284.475C1101.18 284.055 1100.76 283.787 1100.25 283.67C1099.73 283.53 1099.12 283.46 1098.39 283.46C1097.69 283.46 1097.09 283.53 1096.57 283.67C1096.06 283.787 1095.64 284.055 1095.31 284.475C1094.99 284.872 1094.73 285.478 1094.54 286.295C1094.38 287.112 1094.3 288.197 1094.3 289.55C1094.3 290.927 1094.38 292.035 1094.54 292.875C1094.73 293.692 1094.99 294.31 1095.31 294.73C1095.64 295.127 1096.06 295.395 1096.57 295.535C1097.09 295.652 1097.69 295.71 1098.39 295.71ZM1116.14 299.21C1114.42 299.21 1113.08 298.732 1112.12 297.775C1111.16 296.795 1110.68 295.372 1110.68 293.505V280.24H1115.02V292.245C1115.02 293.482 1115.3 294.31 1115.86 294.73C1116.45 295.15 1117.23 295.36 1118.21 295.36C1119.03 295.36 1119.82 295.232 1120.59 294.975C1121.36 294.718 1122.08 294.345 1122.76 293.855V280.24H1127.1V299H1123.56L1122.76 297.04C1121.87 297.6 1120.86 298.102 1119.71 298.545C1118.59 298.988 1117.4 299.21 1116.14 299.21ZM1146.4 299V277.055H1138.98V273.17H1158.13V277.055H1150.74V299H1146.4ZM1160.89 299V272.33H1165.23V282.2C1165.98 281.64 1166.91 281.127 1168.03 280.66C1169.18 280.17 1170.34 279.925 1171.53 279.925C1172.91 279.925 1174.02 280.205 1174.86 280.765C1175.72 281.325 1176.34 282.107 1176.71 283.11C1177.11 284.09 1177.31 285.21 1177.31 286.47V299H1172.97V286.995C1172.97 286.342 1172.84 285.782 1172.58 285.315C1172.33 284.825 1171.97 284.463 1171.5 284.23C1171.03 283.973 1170.48 283.845 1169.85 283.845C1169.25 283.845 1168.69 283.915 1168.17 284.055C1167.66 284.172 1167.16 284.347 1166.67 284.58C1166.2 284.813 1165.72 285.082 1165.23 285.385V299H1160.89ZM1182.2 277.265C1181.76 277.265 1181.54 277.055 1181.54 276.635V273.45C1181.54 272.983 1181.76 272.75 1182.2 272.75H1185.49C1185.7 272.75 1185.85 272.82 1185.95 272.96C1186.06 273.1 1186.12 273.263 1186.12 273.45V276.635C1186.12 277.055 1185.91 277.265 1185.49 277.265H1182.2ZM1181.64 299V280.24H1185.98V299H1181.64ZM1190.43 299V280.24H1193.96L1194.77 282.2C1195.54 281.617 1196.47 281.092 1197.57 280.625C1198.69 280.158 1199.84 279.925 1201.03 279.925C1202.5 279.925 1203.66 280.228 1204.5 280.835C1205.34 281.418 1205.93 282.212 1206.28 283.215C1206.65 284.218 1206.84 285.315 1206.84 286.505V299H1202.5V287.03C1202.5 286.353 1202.37 285.782 1202.12 285.315C1201.86 284.848 1201.5 284.487 1201.03 284.23C1200.59 283.973 1200.04 283.845 1199.39 283.845C1198.78 283.845 1198.21 283.903 1197.67 284.02C1197.16 284.137 1196.67 284.312 1196.2 284.545C1195.73 284.778 1195.26 285.058 1194.77 285.385V299H1190.43ZM1211.17 299V272.295H1215.51V287.1H1217.89L1222.58 280.24H1227.03L1221.08 289.06L1227.52 299H1223.07L1217.82 290.985H1215.51V299H1211.17ZM1230.43 299.035C1229.98 299.035 1229.76 298.825 1229.76 298.405V295.08C1229.76 294.637 1229.98 294.415 1230.43 294.415H1232.91C1233.35 294.415 1233.58 294.637 1233.58 295.08V298.405C1233.58 298.638 1233.51 298.802 1233.37 298.895C1233.25 298.988 1233.1 299.035 1232.91 299.035H1230.43Z" fill="white"/>
<defs>
<linearGradient id="paint0_linear_328_361" x1="1209.42" y1="386.847" x2="1417.82" y2="142.601" gradientUnits="userSpaceOnUse">
<stop stop-color="#D902FF"/>
<stop offset="1" stop-color="#F1DD26"/>
</linearGradient>
<linearGradient id="paint1_linear_328_361" x1="-19.7735" y1="-229.11" x2="215.129" y2="368.372" gradientUnits="userSpaceOnUse">
<stop stop-color="#D902FF"/>
<stop offset="1" stop-color="#F1DD26"/>
</linearGradient>
<linearGradient id="paint2_linear_328_361" x1="-19.7735" y1="-229.11" x2="215.129" y2="368.372" gradientUnits="userSpaceOnUse">
<stop stop-color="#D902FF"/>
<stop offset="1" stop-color="#F1DD26"/>
</linearGradient>
<clipPath id="clip0_328_361">
<rect width="330.86" height="321.072" fill="white" transform="translate(1315.69 459) rotate(-139.528)"/>
</clipPath>
<clipPath id="clip1_328_361">
<rect width="628" height="642" fill="white" transform="translate(-235 -114.22) rotate(-21.4625)"/>
</clipPath>
<clipPath id="clip2_328_361">
<rect width="628" height="642" fill="white" transform="translate(-235 -114.22) rotate(-21.4625)"/>
</clipPath>
</defs>
</svg>
