<svg width="126" height="126" viewBox="0 0 126 126" fill="none" xmlns="http://www.w3.org/2000/svg">
<g clip-path="url(#clip0_14_767)">
<path d="M62.999 44.5107L79.8797 0L72.2431 46.9873L109.119 16.8807L79.0107 53.7549L126 46.1183L81.4873 62.999L126 79.8797L79.0107 72.2431L109.119 109.119L72.2431 79.0107L79.8797 126L62.999 81.4873L46.1183 126L53.7549 79.0107L16.8807 109.119L46.9893 72.2431L0 79.8797L44.5107 62.999L0 46.1183L46.9893 53.7549L16.8807 16.8807L53.7549 46.9873L46.1183 0L62.999 44.5107Z" fill="url(#paint0_linear_14_767)"/>
<path d="M62.999 44.5107L79.8797 0L72.2431 46.9873L109.119 16.8807L79.0107 53.7549L126 46.1183L81.4873 62.999L126 79.8797L79.0107 72.2431L109.119 109.119L72.2431 79.0107L79.8797 126L62.999 81.4873L46.1183 126L53.7549 79.0107L16.8807 109.119L46.9893 72.2431L0 79.8797L44.5107 62.999L0 46.1183L46.9893 53.7549L16.8807 16.8807L53.7549 46.9873L46.1183 0L62.999 44.5107Z" fill="url(#paint1_linear_14_767)"/>
<path d="M62.999 44.5107L79.8797 0L72.2431 46.9873L109.119 16.8807L79.0107 53.7549L126 46.1183L81.4873 62.999L126 79.8797L79.0107 72.2431L109.119 109.119L72.2431 79.0107L79.8797 126L62.999 81.4873L46.1183 126L53.7549 79.0107L16.8807 109.119L46.9893 72.2431L0 79.8797L44.5107 62.999L0 46.1183L46.9893 53.7549L16.8807 16.8807L53.7549 46.9873L46.1183 0L62.999 44.5107Z" fill="url(#paint2_linear_14_767)"/>
</g>
<defs>
<linearGradient id="paint0_linear_14_767" x1="38.4918" y1="-2.57294" x2="91.2251" y2="138.52" gradientUnits="userSpaceOnUse">
<stop stop-color="#3F3E3F"/>
<stop offset="0.52" stop-color="#D902FF"/>
<stop offset="1" stop-color="#F1DD26"/>
</linearGradient>
<linearGradient id="paint1_linear_14_767" x1="38.4918" y1="-2.57294" x2="91.2251" y2="138.52" gradientUnits="userSpaceOnUse">
<stop stop-color="#3F3E3F"/>
<stop offset="0.52" stop-color="#D902FF"/>
<stop offset="1" stop-color="#F1DD26"/>
</linearGradient>
<linearGradient id="paint2_linear_14_767" x1="38.4918" y1="-2.57294" x2="91.2251" y2="138.52" gradientUnits="userSpaceOnUse">
<stop stop-color="#3F3E3F"/>
<stop offset="0.52" stop-color="#D902FF"/>
<stop offset="1" stop-color="#F1DD26"/>
</linearGradient>
<clipPath id="clip0_14_767">
<rect width="126" height="126" fill="white"/>
</clipPath>
</defs>
</svg>
